G04*
G04 #@! TF.GenerationSoftware,Altium Limited,Altium Designer,26.1.1 (7)*
G04*
G04 Layer_Color=16711935*
%FSLAX44Y44*%
%MOMM*%
G71*
G04*
G04 #@! TF.SameCoordinates,B21C34BE-7AC1-47D8-94C6-A1BA8AEE15DA*
G04*
G04*
G04 #@! TF.FilePolarity,Positive*
G04*
G01*
G75*
%ADD11C,0.2540*%
%ADD22C,0.1000*%
D11*
X679450Y1217300D02*
G03*
X639450Y1257300I-40000J0D01*
G01*
Y1096010D02*
G03*
X679450Y1136010I0J40000D01*
G01*
X302890Y1257300D02*
G03*
X262890Y1217300I0J-40000D01*
G01*
Y1136010D02*
G03*
X302890Y1096010I40000J0D01*
G01*
X639450D01*
X302890Y1257300D02*
X639450D01*
X679450Y1136010D02*
Y1217300D01*
X262890Y1136010D02*
Y1217300D01*
D22*
X592936Y1159180D02*
Y1187180D01*
X627936Y1159180D02*
Y1187180D01*
X592936D02*
X627936D01*
X592936Y1159180D02*
X627936D01*
X545656D02*
Y1187180D01*
X580656Y1159180D02*
Y1187180D01*
X545656D02*
X580656D01*
X545656Y1159180D02*
X580656D01*
X498376D02*
Y1187180D01*
X533376Y1159180D02*
Y1187180D01*
X498376D02*
X533376D01*
X498376Y1159180D02*
X533376D01*
X451096D02*
Y1187180D01*
X486096Y1159180D02*
Y1187180D01*
X451096D02*
X486096D01*
X451096Y1159180D02*
X486096D01*
X403815D02*
Y1187180D01*
X438815Y1159180D02*
Y1187180D01*
X403815D02*
X438815D01*
X403815Y1159180D02*
X438815D01*
M02*
