G04*
G04 #@! TF.GenerationSoftware,Altium Limited,Altium Designer,26.1.1 (7)*
G04*
G04 Layer_Physical_Order=1*
G04 Layer_Color=255*
%FSLAX44Y44*%
%MOMM*%
G71*
G04*
G04 #@! TF.SameCoordinates,B21C34BE-7AC1-47D8-94C6-A1BA8AEE15DA*
G04*
G04*
G04 #@! TF.FilePolarity,Positive*
G04*
G01*
G75*
G04:AMPARAMS|DCode=12|XSize=1.1mm|YSize=1.8mm|CornerRadius=0.1375mm|HoleSize=0mm|Usage=FLASHONLY|Rotation=0.000|XOffset=0mm|YOffset=0mm|HoleType=Round|Shape=RoundedRectangle|*
%AMROUNDEDRECTD12*
21,1,1.1000,1.5250,0,0,0.0*
21,1,0.8250,1.8000,0,0,0.0*
1,1,0.2750,0.4125,-0.7625*
1,1,0.2750,-0.4125,-0.7625*
1,1,0.2750,-0.4125,0.7625*
1,1,0.2750,0.4125,0.7625*
%
%ADD12ROUNDEDRECTD12*%
G04:AMPARAMS|DCode=13|XSize=2.2mm|YSize=1.8mm|CornerRadius=0.225mm|HoleSize=0mm|Usage=FLASHONLY|Rotation=0.000|XOffset=0mm|YOffset=0mm|HoleType=Round|Shape=RoundedRectangle|*
%AMROUNDEDRECTD13*
21,1,2.2000,1.3500,0,0,0.0*
21,1,1.7500,1.8000,0,0,0.0*
1,1,0.4500,0.8750,-0.6750*
1,1,0.4500,-0.8750,-0.6750*
1,1,0.4500,-0.8750,0.6750*
1,1,0.4500,0.8750,0.6750*
%
%ADD13ROUNDEDRECTD13*%
%ADD14R,2.8000X1.3500*%
%ADD15R,2.9200X1.2700*%
%ADD16R,1.6500X3.4300*%
G36*
X614280Y1186711D02*
X613892Y1186241D01*
X611740Y1184924D01*
X610786Y1185114D01*
X603306D01*
Y1182207D01*
X600766D01*
Y1185114D01*
X593286D01*
X591417Y1184742D01*
X590909Y1184403D01*
X593063Y1182249D01*
X591267Y1180452D01*
X589113Y1182607D01*
X588774Y1182099D01*
X588402Y1180230D01*
Y1174750D01*
X591309D01*
Y1172210D01*
X588402D01*
Y1166730D01*
X588774Y1164861D01*
X589113Y1164353D01*
X591267Y1166508D01*
X593063Y1164712D01*
X590909Y1162557D01*
X591417Y1162218D01*
X593286Y1161846D01*
X600766D01*
Y1164753D01*
X603306D01*
Y1161846D01*
X610786D01*
X611740Y1162036D01*
X613892Y1160719D01*
X614280Y1160249D01*
Y1102360D01*
X613010Y1101090D01*
X571927D01*
X569590Y1102360D01*
Y1160249D01*
X569557Y1160412D01*
X570076Y1161061D01*
X570957Y1161744D01*
X571722Y1162124D01*
X573031Y1161863D01*
X575886D01*
Y1164753D01*
X578426D01*
Y1161863D01*
X581281D01*
X582808Y1162167D01*
X584103Y1163032D01*
X584969Y1164327D01*
X585272Y1165855D01*
Y1172210D01*
X582383D01*
Y1174750D01*
X585272D01*
Y1181105D01*
X584969Y1182633D01*
X584103Y1183928D01*
X582808Y1184793D01*
X581281Y1185097D01*
X578426D01*
Y1182207D01*
X575886D01*
Y1185097D01*
X573031D01*
X571722Y1184836D01*
X570957Y1185216D01*
X570076Y1185899D01*
X569557Y1186548D01*
X569590Y1186711D01*
Y1193800D01*
X614280D01*
Y1186711D01*
D02*
G37*
G36*
X567000D02*
X566612Y1186241D01*
X564460Y1184924D01*
X563506Y1185114D01*
X556026D01*
Y1182207D01*
X553486D01*
Y1185114D01*
X546006D01*
X544137Y1184742D01*
X543629Y1184403D01*
X545783Y1182249D01*
X543987Y1180452D01*
X541833Y1182607D01*
X541494Y1182099D01*
X541122Y1180230D01*
Y1174750D01*
X544029D01*
Y1172210D01*
X541122D01*
Y1166730D01*
X541494Y1164861D01*
X541833Y1164353D01*
X543987Y1166508D01*
X545783Y1164712D01*
X543629Y1162557D01*
X544137Y1162218D01*
X546006Y1161846D01*
X553486D01*
Y1164753D01*
X556026D01*
Y1161846D01*
X563506D01*
X564460Y1162036D01*
X566612Y1160719D01*
X567000Y1160249D01*
Y1102360D01*
X565730Y1101090D01*
X524647D01*
X522310Y1102360D01*
Y1160249D01*
X522277Y1160412D01*
X522796Y1161061D01*
X523677Y1161744D01*
X524442Y1162124D01*
X525751Y1161863D01*
X528606D01*
Y1164753D01*
X531146D01*
Y1161863D01*
X534001D01*
X535528Y1162167D01*
X536823Y1163032D01*
X537688Y1164327D01*
X537992Y1165855D01*
Y1172210D01*
X535102D01*
Y1174750D01*
X537992D01*
Y1181105D01*
X537688Y1182633D01*
X536823Y1183928D01*
X535528Y1184793D01*
X534001Y1185097D01*
X531146D01*
Y1182207D01*
X528606D01*
Y1185097D01*
X525751D01*
X524442Y1184836D01*
X523677Y1185216D01*
X522796Y1185899D01*
X522277Y1186548D01*
X522310Y1186711D01*
Y1193800D01*
X567000D01*
Y1186711D01*
D02*
G37*
G36*
X519720D02*
X519332Y1186241D01*
X517180Y1184924D01*
X516226Y1185114D01*
X508746D01*
Y1182207D01*
X506206D01*
Y1185114D01*
X498726D01*
X496857Y1184742D01*
X496349Y1184403D01*
X498503Y1182249D01*
X496707Y1180452D01*
X494553Y1182607D01*
X494213Y1182099D01*
X493842Y1180230D01*
Y1174750D01*
X496749D01*
Y1172210D01*
X493842D01*
Y1166730D01*
X494213Y1164861D01*
X494553Y1164353D01*
X496707Y1166508D01*
X498503Y1164712D01*
X496349Y1162557D01*
X496857Y1162218D01*
X498726Y1161846D01*
X506206D01*
Y1164753D01*
X508746D01*
Y1161846D01*
X516226D01*
X517180Y1162036D01*
X519332Y1160719D01*
X519720Y1160249D01*
Y1102360D01*
X518450Y1101090D01*
X477367D01*
X475030Y1102360D01*
Y1160249D01*
X474997Y1160412D01*
X475516Y1161061D01*
X476397Y1161744D01*
X477162Y1162124D01*
X478471Y1161863D01*
X481326D01*
Y1164753D01*
X483866D01*
Y1161863D01*
X486721D01*
X488248Y1162167D01*
X489543Y1163032D01*
X490408Y1164327D01*
X490712Y1165855D01*
Y1172210D01*
X487822D01*
Y1174750D01*
X490712D01*
Y1181105D01*
X490408Y1182633D01*
X489543Y1183928D01*
X488248Y1184793D01*
X486721Y1185097D01*
X483866D01*
Y1182207D01*
X481326D01*
Y1185097D01*
X478471D01*
X477161Y1184836D01*
X476397Y1185216D01*
X475516Y1185899D01*
X474997Y1186548D01*
X475030Y1186711D01*
Y1193800D01*
X519720D01*
Y1186711D01*
D02*
G37*
G36*
X472440D02*
X472052Y1186241D01*
X469900Y1184924D01*
X468946Y1185114D01*
X461465D01*
Y1182207D01*
X458926D01*
Y1185114D01*
X451446D01*
X449577Y1184742D01*
X449069Y1184403D01*
X451223Y1182249D01*
X449427Y1180452D01*
X447273Y1182607D01*
X446933Y1182099D01*
X446562Y1180230D01*
Y1174750D01*
X449469D01*
Y1172210D01*
X446562D01*
Y1166730D01*
X446933Y1164861D01*
X447273Y1164353D01*
X449427Y1166508D01*
X451223Y1164712D01*
X449069Y1162557D01*
X449577Y1162218D01*
X451446Y1161846D01*
X458926D01*
Y1164753D01*
X461465D01*
Y1161846D01*
X468946D01*
X469900Y1162036D01*
X472052Y1160719D01*
X472440Y1160249D01*
Y1102360D01*
X471170Y1101090D01*
X426784D01*
X426770Y1101108D01*
Y1161200D01*
X429310Y1162403D01*
X429663Y1162167D01*
X431190Y1161863D01*
X434045D01*
Y1164753D01*
X436586D01*
Y1161863D01*
X439440D01*
X440968Y1162167D01*
X442263Y1163032D01*
X443128Y1164327D01*
X443432Y1165855D01*
Y1172210D01*
X440542D01*
Y1174750D01*
X443432D01*
Y1181105D01*
X443128Y1182633D01*
X442263Y1183928D01*
X440968Y1184793D01*
X439440Y1185097D01*
X436586D01*
Y1182207D01*
X434045D01*
Y1185097D01*
X431190D01*
X429663Y1184793D01*
X429310Y1184557D01*
X426770Y1185760D01*
Y1193800D01*
X472440D01*
Y1186711D01*
D02*
G37*
G36*
X424180Y1184311D02*
X423534Y1184742D01*
X421665Y1185114D01*
X414185D01*
Y1182207D01*
X411646D01*
Y1185114D01*
X404165D01*
X402296Y1184742D01*
X401789Y1184403D01*
X403943Y1182249D01*
X402147Y1180452D01*
X399993Y1182607D01*
X399653Y1182099D01*
X399282Y1180230D01*
Y1174750D01*
X402189D01*
Y1172210D01*
X399282D01*
Y1166730D01*
X399653Y1164861D01*
X399993Y1164353D01*
X402147Y1166508D01*
X403943Y1164712D01*
X401789Y1162557D01*
X402296Y1162218D01*
X404165Y1161846D01*
X411646D01*
Y1164753D01*
X414185D01*
Y1161846D01*
X421665D01*
X423534Y1162218D01*
X424180Y1162649D01*
Y1101108D01*
X300602D01*
X296066Y1101705D01*
X291647Y1102889D01*
X287420Y1104640D01*
X283458Y1106928D01*
X279828Y1109713D01*
X276593Y1112948D01*
X273808Y1116578D01*
X271520Y1120540D01*
X270510Y1122978D01*
Y1174750D01*
X394970D01*
Y1193800D01*
X424180D01*
Y1184311D01*
D02*
G37*
G36*
X646274Y1251605D02*
X650693Y1250421D01*
X654920Y1248670D01*
X658882Y1246382D01*
X662512Y1243597D01*
X665747Y1240362D01*
X668532Y1236732D01*
X670820Y1232770D01*
X672571Y1228543D01*
X673755Y1224124D01*
X674352Y1219588D01*
Y1217300D01*
Y1173480D01*
X636270D01*
Y1195070D01*
X616360Y1195259D01*
X616111Y1195631D01*
X615271Y1196193D01*
X614280Y1196390D01*
X569590D01*
X568599Y1196193D01*
X568295Y1195990D01*
X567991Y1196193D01*
X567000Y1196390D01*
X522310D01*
X521319Y1196193D01*
X521273Y1196162D01*
X520947Y1196165D01*
X520750Y1196167D01*
X520711Y1196193D01*
X519720Y1196390D01*
X497282D01*
X394970Y1197361D01*
Y1196390D01*
X393979Y1196193D01*
X393139Y1195631D01*
X392577Y1194791D01*
X392380Y1193800D01*
Y1177340D01*
X270510D01*
X269519Y1177143D01*
X268679Y1176581D01*
X268117Y1175741D01*
X267988Y1175090D01*
Y1217300D01*
Y1219588D01*
X268585Y1224124D01*
X269769Y1228543D01*
X271520Y1232770D01*
X273808Y1236732D01*
X276593Y1240362D01*
X279828Y1243597D01*
X283458Y1246382D01*
X287420Y1248670D01*
X291647Y1250421D01*
X296066Y1251605D01*
X300602Y1252202D01*
X641738D01*
X646274Y1251605D01*
D02*
G37*
G36*
X633680Y1192505D02*
Y1173480D01*
X633877Y1172489D01*
X634439Y1171649D01*
X635279Y1171087D01*
X636270Y1170890D01*
X674352D01*
Y1136010D01*
Y1133722D01*
X673755Y1129186D01*
X672571Y1124767D01*
X670820Y1120540D01*
X668532Y1116578D01*
X665747Y1112948D01*
X662512Y1109713D01*
X658882Y1106928D01*
X654920Y1104640D01*
X650693Y1102889D01*
X646274Y1101705D01*
X641738Y1101108D01*
X618490D01*
Y1162363D01*
X618783Y1162167D01*
X620311Y1161863D01*
X623166D01*
Y1164753D01*
X625706D01*
Y1161863D01*
X628561D01*
X630088Y1162167D01*
X631383Y1163032D01*
X632249Y1164327D01*
X632552Y1165855D01*
Y1172210D01*
X629663D01*
Y1174750D01*
X632552D01*
Y1181105D01*
X632249Y1182633D01*
X631383Y1183928D01*
X630088Y1184793D01*
X628561Y1185097D01*
X625706D01*
Y1182207D01*
X623166D01*
Y1185097D01*
X620311D01*
X618783Y1184793D01*
X618490Y1184597D01*
Y1192649D01*
X633680Y1192505D01*
D02*
G37*
%LPC*%
G36*
X387110Y1171180D02*
X371240D01*
Y1168367D01*
X368700D01*
Y1171180D01*
X352830D01*
Y1163560D01*
X355643D01*
Y1161020D01*
X352830D01*
Y1153400D01*
X368700D01*
Y1156213D01*
X371240D01*
Y1153400D01*
X387110D01*
Y1161020D01*
X384297D01*
Y1163560D01*
X387110D01*
Y1171180D01*
D02*
G37*
G36*
X326060Y1143030D02*
X304480D01*
Y1103650D01*
X326060D01*
Y1143030D01*
D02*
G37*
G36*
Y1250930D02*
X304480D01*
Y1211550D01*
X326060D01*
Y1250930D01*
D02*
G37*
G36*
X387110Y1201180D02*
X371240D01*
Y1198367D01*
X368700D01*
Y1201180D01*
X352830D01*
Y1193560D01*
X355643D01*
Y1191020D01*
X352830D01*
Y1183400D01*
X368700D01*
Y1186213D01*
X371240D01*
Y1183400D01*
X387110D01*
Y1191020D01*
X384297D01*
Y1193560D01*
X387110D01*
Y1201180D01*
D02*
G37*
G36*
X671860Y1196520D02*
X656590D01*
Y1193707D01*
X654050D01*
Y1196520D01*
X638780D01*
Y1188500D01*
X641593D01*
Y1185960D01*
X638780D01*
Y1177940D01*
X654050D01*
Y1180753D01*
X656590D01*
Y1177940D01*
X671860D01*
Y1185960D01*
X669047D01*
Y1188500D01*
X671860D01*
Y1196520D01*
D02*
G37*
G36*
Y1169020D02*
X656590D01*
Y1166207D01*
X654050D01*
Y1169020D01*
X638780D01*
Y1161000D01*
X641593D01*
Y1158460D01*
X638780D01*
Y1150440D01*
X654050D01*
Y1153253D01*
X656590D01*
Y1150440D01*
X671860D01*
Y1158460D01*
X669047D01*
Y1161000D01*
X671860D01*
Y1169020D01*
D02*
G37*
%LPD*%
D12*
X624436Y1173480D02*
D03*
X577156D02*
D03*
X529876D02*
D03*
X482596D02*
D03*
X435316D02*
D03*
D13*
X602036D02*
D03*
X554756D02*
D03*
X507476D02*
D03*
X460196D02*
D03*
X412915D02*
D03*
D14*
X655320Y1159730D02*
D03*
Y1187230D02*
D03*
D15*
X369970Y1192290D02*
D03*
Y1162290D02*
D03*
D16*
X315270Y1123340D02*
D03*
Y1231240D02*
D03*
M02*
