G04*
G04 #@! TF.GenerationSoftware,Altium Limited,Altium Designer,26.1.1 (7)*
G04*
G04 Layer_Color=8388736*
%FSLAX44Y44*%
%MOMM*%
G71*
G04*
G04 #@! TF.SameCoordinates,8CB19A78-59BC-4A0B-BB1C-583499A9BDC7*
G04*
G04*
G04 #@! TF.FilePolarity,Negative*
G04*
G01*
G75*
%ADD18R,3.1232X1.4732*%
%ADD19R,1.8532X3.6332*%
%ADD20R,1.6532X3.7532*%
%ADD21R,0.7032X3.5032*%
%ADD22R,1.5032X3.5032*%
D18*
X377590Y1025920D02*
D03*
Y995920D02*
D03*
D19*
X322890Y956970D02*
D03*
Y1064870D02*
D03*
D20*
X786940Y1070610D02*
D03*
Y1011555D02*
D03*
Y952500D02*
D03*
X729440D02*
D03*
Y1011555D02*
D03*
Y1070610D02*
D03*
D21*
X459800Y952500D02*
D03*
X431800D02*
D03*
X459800Y1070610D02*
D03*
X431800D02*
D03*
X581070Y952500D02*
D03*
X553070D02*
D03*
X459800Y1011555D02*
D03*
X431800D02*
D03*
X641705D02*
D03*
X613705D02*
D03*
X702340Y952500D02*
D03*
X674340D02*
D03*
X702340Y1011555D02*
D03*
X674340D02*
D03*
X702340Y1070610D02*
D03*
X674340D02*
D03*
X641705Y952500D02*
D03*
X613705D02*
D03*
X641705Y1070610D02*
D03*
X613705D02*
D03*
X581070Y1011555D02*
D03*
X553070D02*
D03*
X581070Y1070610D02*
D03*
X553070D02*
D03*
X520435Y952500D02*
D03*
X492435D02*
D03*
X520435Y1011555D02*
D03*
X492435D02*
D03*
X520435Y1070610D02*
D03*
X492435D02*
D03*
D22*
X445800Y952500D02*
D03*
Y1070610D02*
D03*
X567070Y952500D02*
D03*
X445800Y1011555D02*
D03*
X627705D02*
D03*
X688340Y952500D02*
D03*
Y1011555D02*
D03*
Y1070610D02*
D03*
X627705Y952500D02*
D03*
Y1070610D02*
D03*
X567070Y1011555D02*
D03*
Y1070610D02*
D03*
X506435Y952500D02*
D03*
Y1011555D02*
D03*
Y1070610D02*
D03*
M02*
