G04*
G04 #@! TF.GenerationSoftware,Altium Limited,Altium Designer,26.1.1 (7)*
G04*
G04 Layer_Physical_Order=1*
G04 Layer_Color=255*
%FSLAX44Y44*%
%MOMM*%
G71*
G04*
G04 #@! TF.SameCoordinates,8CB19A78-59BC-4A0B-BB1C-583499A9BDC7*
G04*
G04*
G04 #@! TF.FilePolarity,Positive*
G04*
G01*
G75*
%ADD13R,2.9200X1.2700*%
%ADD14R,1.6500X3.4300*%
%ADD15R,1.4500X3.5500*%
%ADD16R,0.5000X3.3000*%
%ADD17R,1.3000X3.3000*%
G36*
X736600Y1090392D02*
X730710D01*
Y1088129D01*
X728170D01*
Y1090392D01*
X720158D01*
Y1071880D01*
X722421D01*
Y1069340D01*
X720158D01*
Y1050828D01*
X728170D01*
Y1053091D01*
X730710D01*
Y1050828D01*
X736600D01*
Y1043940D01*
X698500D01*
Y1052078D01*
X701070D01*
Y1054341D01*
X703610D01*
Y1052078D01*
X706872D01*
Y1069340D01*
X704609D01*
Y1071880D01*
X706872D01*
Y1089142D01*
X703610D01*
Y1086879D01*
X701070D01*
Y1089142D01*
X698500D01*
Y1095960D01*
X736600D01*
Y1090392D01*
D02*
G37*
G36*
X677530Y1089142D02*
X675610D01*
Y1086879D01*
X673070D01*
Y1089142D01*
X669808D01*
Y1071880D01*
X672071D01*
Y1069340D01*
X669808D01*
Y1052078D01*
X673070D01*
Y1054341D01*
X675610D01*
Y1052078D01*
X677530D01*
Y1043940D01*
X639430Y1043940D01*
Y1052078D01*
X640435D01*
Y1054341D01*
X642975D01*
Y1052078D01*
X646237D01*
Y1069340D01*
X643973D01*
Y1071880D01*
X646237D01*
Y1089142D01*
X642975D01*
Y1086879D01*
X640435D01*
Y1089142D01*
X639430D01*
Y1096010D01*
X677530D01*
Y1089142D01*
D02*
G37*
G36*
X616895D02*
X614975D01*
Y1086879D01*
X612435D01*
Y1089142D01*
X609173D01*
Y1071880D01*
X611436D01*
Y1069340D01*
X609173D01*
Y1052078D01*
X612435D01*
Y1054341D01*
X614975D01*
Y1052078D01*
X616895D01*
Y1043940D01*
X578795Y1043940D01*
Y1052078D01*
X579800D01*
Y1054341D01*
X582340D01*
Y1052078D01*
X585602D01*
Y1069340D01*
X583339D01*
Y1071880D01*
X585602D01*
Y1089142D01*
X582340D01*
Y1086879D01*
X579800D01*
Y1089142D01*
X578795D01*
Y1096010D01*
X616895D01*
Y1089142D01*
D02*
G37*
G36*
X556260D02*
X554340D01*
Y1086879D01*
X551800D01*
Y1089142D01*
X548538D01*
Y1071880D01*
X550801D01*
Y1069340D01*
X548538D01*
Y1052078D01*
X551800D01*
Y1054341D01*
X554340D01*
Y1052078D01*
X556260D01*
Y1043940D01*
X518160Y1043940D01*
Y1052078D01*
X519165D01*
Y1054341D01*
X521705D01*
Y1052078D01*
X524967D01*
Y1069340D01*
X522704D01*
Y1071880D01*
X524967D01*
Y1089142D01*
X521705D01*
Y1086879D01*
X519165D01*
Y1089142D01*
X518160D01*
Y1096010D01*
X556260D01*
Y1089142D01*
D02*
G37*
G36*
X495625D02*
X493705D01*
Y1086879D01*
X491165D01*
Y1089142D01*
X487903D01*
Y1071880D01*
X490166D01*
Y1069340D01*
X487903D01*
Y1052078D01*
X491165D01*
Y1054341D01*
X493705D01*
Y1052078D01*
X495625D01*
Y1043940D01*
X457525Y1043940D01*
Y1052078D01*
X458530D01*
Y1054341D01*
X461070D01*
Y1052078D01*
X464332D01*
Y1069340D01*
X462069D01*
Y1071880D01*
X464332D01*
Y1089142D01*
X461070D01*
Y1086879D01*
X458530D01*
Y1089142D01*
X457525D01*
Y1096010D01*
X495625D01*
Y1089142D01*
D02*
G37*
G36*
X434975D02*
X433070D01*
Y1086879D01*
X430530D01*
Y1089142D01*
X427268D01*
Y1071880D01*
X429531D01*
Y1069340D01*
X427268D01*
Y1052078D01*
X430530D01*
Y1054341D01*
X433070D01*
Y1052078D01*
X434975D01*
Y1030087D01*
X433070D01*
Y1027824D01*
X430530D01*
Y1030087D01*
X427268D01*
Y1012825D01*
X429531D01*
Y1010285D01*
X427268D01*
Y993023D01*
X430530D01*
Y995286D01*
X433070D01*
Y993023D01*
X434975D01*
Y971032D01*
X433070D01*
Y968769D01*
X430530D01*
Y971032D01*
X427268D01*
Y953770D01*
X429531D01*
Y951230D01*
X427268D01*
Y933968D01*
X430530D01*
Y936231D01*
X433070D01*
Y933968D01*
X434975D01*
Y924560D01*
X358775D01*
Y981710D01*
Y1009650D01*
X403225D01*
Y1096010D01*
X434975D01*
Y1089142D01*
D02*
G37*
G36*
X736600Y1031337D02*
X730710D01*
Y1029074D01*
X728170D01*
Y1031337D01*
X720158D01*
Y1012825D01*
X722421D01*
Y1010285D01*
X720158D01*
Y991773D01*
X728170D01*
Y994036D01*
X730710D01*
Y991773D01*
X736600D01*
Y984885D01*
X698500D01*
Y993023D01*
X701070D01*
Y995286D01*
X703610D01*
Y993023D01*
X706872D01*
Y1010285D01*
X704609D01*
Y1012825D01*
X706872D01*
Y1030087D01*
X703610D01*
Y1027824D01*
X701070D01*
Y1030087D01*
X698500D01*
Y1038225D01*
X736600D01*
Y1031337D01*
D02*
G37*
G36*
X677530Y1030087D02*
X675610D01*
Y1027824D01*
X673070D01*
Y1030087D01*
X669808D01*
Y1012825D01*
X672071D01*
Y1010285D01*
X669808D01*
Y993023D01*
X673070D01*
Y995286D01*
X675610D01*
Y993023D01*
X677530D01*
Y984885D01*
X639430Y984885D01*
Y993023D01*
X640435D01*
Y995286D01*
X642975D01*
Y993023D01*
X646237D01*
Y1010285D01*
X643973D01*
Y1012825D01*
X646237D01*
Y1030087D01*
X642975D01*
Y1027824D01*
X640435D01*
Y1030087D01*
X639430D01*
Y1038225D01*
X677530D01*
Y1030087D01*
D02*
G37*
G36*
X616895D02*
X614975D01*
Y1027824D01*
X612435D01*
Y1030087D01*
X609173D01*
Y1012825D01*
X611436D01*
Y1010285D01*
X609173D01*
Y993023D01*
X612435D01*
Y995286D01*
X614975D01*
Y993023D01*
X616895D01*
Y984885D01*
X578795Y984885D01*
Y993023D01*
X579800D01*
Y995286D01*
X582340D01*
Y993023D01*
X585602D01*
Y1010285D01*
X583339D01*
Y1012825D01*
X585602D01*
Y1030087D01*
X582340D01*
Y1027824D01*
X579800D01*
Y1030087D01*
X578795D01*
Y1038225D01*
X616895D01*
Y1030087D01*
D02*
G37*
G36*
X556260D02*
X554340D01*
Y1027824D01*
X551800D01*
Y1030087D01*
X548538D01*
Y1012825D01*
X550801D01*
Y1010285D01*
X548538D01*
Y993023D01*
X551800D01*
Y995286D01*
X554340D01*
Y993023D01*
X556260D01*
Y984885D01*
X518160Y984885D01*
Y993023D01*
X519165D01*
Y995286D01*
X521705D01*
Y993023D01*
X524967D01*
Y1010285D01*
X522704D01*
Y1012825D01*
X524967D01*
Y1030087D01*
X521705D01*
Y1027824D01*
X519165D01*
Y1030087D01*
X518160D01*
Y1038225D01*
X556260D01*
Y1030087D01*
D02*
G37*
G36*
X495625D02*
X493705D01*
Y1027824D01*
X491165D01*
Y1030087D01*
X487903D01*
Y1012825D01*
X490166D01*
Y1010285D01*
X487903D01*
Y993023D01*
X491165D01*
Y995286D01*
X493705D01*
Y993023D01*
X495625D01*
Y985520D01*
X457525Y985520D01*
Y993023D01*
X458530D01*
Y995286D01*
X461070D01*
Y993023D01*
X464332D01*
Y1010285D01*
X462069D01*
Y1012825D01*
X464332D01*
Y1030087D01*
X461070D01*
Y1027824D01*
X458530D01*
Y1030087D01*
X457525D01*
Y1038225D01*
X495625D01*
Y1030087D01*
D02*
G37*
G36*
X736600Y972282D02*
X730710D01*
Y970019D01*
X728170D01*
Y972282D01*
X720158D01*
Y953770D01*
X722421D01*
Y951230D01*
X720158D01*
Y932718D01*
X728170D01*
Y934981D01*
X730710D01*
Y932718D01*
X736600D01*
Y925830D01*
X698500D01*
Y933968D01*
X701070D01*
Y936231D01*
X703610D01*
Y933968D01*
X706872D01*
Y951230D01*
X704609D01*
Y953770D01*
X706872D01*
Y971032D01*
X703610D01*
Y968769D01*
X701070D01*
Y971032D01*
X698500D01*
Y979170D01*
X736600D01*
Y972282D01*
D02*
G37*
G36*
X677530Y971032D02*
X675610D01*
Y968769D01*
X673070D01*
Y971032D01*
X669808D01*
Y953770D01*
X672071D01*
Y951230D01*
X669808D01*
Y933968D01*
X673070D01*
Y936231D01*
X675610D01*
Y933968D01*
X677530D01*
Y925830D01*
X639430Y925830D01*
Y933968D01*
X640435D01*
Y936231D01*
X642975D01*
Y933968D01*
X646237D01*
Y951230D01*
X643973D01*
Y953770D01*
X646237D01*
Y971032D01*
X642975D01*
Y968769D01*
X640435D01*
Y971032D01*
X639430D01*
Y979170D01*
X677530D01*
Y971032D01*
D02*
G37*
G36*
X616895D02*
X614975D01*
Y968769D01*
X612435D01*
Y971032D01*
X609173D01*
Y953770D01*
X611436D01*
Y951230D01*
X609173D01*
Y933968D01*
X612435D01*
Y936231D01*
X614975D01*
Y933968D01*
X616895D01*
Y925830D01*
X578795Y925830D01*
Y933968D01*
X579800D01*
Y936231D01*
X582340D01*
Y933968D01*
X585602D01*
Y951230D01*
X583339D01*
Y953770D01*
X585602D01*
Y971032D01*
X582340D01*
Y968769D01*
X579800D01*
Y971032D01*
X578795D01*
Y979170D01*
X616895D01*
Y971032D01*
D02*
G37*
G36*
X556260D02*
X554340D01*
Y968769D01*
X551800D01*
Y971032D01*
X548538D01*
Y953770D01*
X550801D01*
Y951230D01*
X548538D01*
Y933968D01*
X551800D01*
Y936231D01*
X554340D01*
Y933968D01*
X556260D01*
Y925830D01*
X518160Y925830D01*
Y933968D01*
X519165D01*
Y936231D01*
X521705D01*
Y933968D01*
X524967D01*
Y951230D01*
X522704D01*
Y953770D01*
X524967D01*
Y971032D01*
X521705D01*
Y968769D01*
X519165D01*
Y971032D01*
X518160D01*
Y979170D01*
X556260D01*
Y971032D01*
D02*
G37*
G36*
X495625D02*
X493705D01*
Y968769D01*
X491165D01*
Y971032D01*
X487903D01*
Y953770D01*
X490166D01*
Y951230D01*
X487903D01*
Y933968D01*
X491165D01*
Y936231D01*
X493705D01*
Y933968D01*
X495625D01*
Y925830D01*
X457525Y925830D01*
Y933968D01*
X458530D01*
Y936231D01*
X461070D01*
Y933968D01*
X464332D01*
Y951230D01*
X462069D01*
Y953770D01*
X464332D01*
Y971032D01*
X461070D01*
Y968769D01*
X458530D01*
Y971032D01*
X457525D01*
Y979170D01*
X495625D01*
Y971032D01*
D02*
G37*
G36*
X791054Y1111905D02*
X795473Y1110721D01*
X799700Y1108970D01*
X803662Y1106682D01*
X807292Y1103897D01*
X810527Y1100662D01*
X813312Y1097032D01*
X815600Y1093070D01*
X817351Y1088843D01*
X818535Y1084424D01*
X819132Y1079888D01*
Y1077600D01*
Y959480D01*
Y957192D01*
X818535Y952656D01*
X817351Y948237D01*
X815600Y944010D01*
X813312Y940048D01*
X810527Y936418D01*
X807292Y933183D01*
X803662Y930398D01*
X799700Y928110D01*
X795473Y926359D01*
X791054Y925175D01*
X786518Y924578D01*
X742950D01*
Y1098550D01*
X677780D01*
X677530Y1098600D01*
X639430D01*
X639180Y1098550D01*
X617145D01*
X616895Y1098600D01*
X578795D01*
X578545Y1098550D01*
X556510D01*
X556260Y1098600D01*
X518160D01*
X517910Y1098550D01*
X495875D01*
X495625Y1098600D01*
X457525D01*
X457275Y1098550D01*
X435225D01*
X434975Y1098600D01*
X403225D01*
X402975Y1098550D01*
X400050D01*
Y1012240D01*
X358775D01*
X358525Y1012190D01*
X355600D01*
Y924578D01*
X308222D01*
X303686Y925175D01*
X299267Y926359D01*
X295040Y928110D01*
X291078Y930398D01*
X287448Y933183D01*
X284213Y936418D01*
X281428Y940048D01*
X279140Y944010D01*
X277389Y948237D01*
X276205Y952656D01*
X275608Y957192D01*
Y959480D01*
Y1077600D01*
Y1079888D01*
X276205Y1084424D01*
X277389Y1088843D01*
X279140Y1093070D01*
X281428Y1097032D01*
X284213Y1100662D01*
X287448Y1103897D01*
X291078Y1106682D01*
X295040Y1108970D01*
X299267Y1110721D01*
X303686Y1111905D01*
X308222Y1112502D01*
X786518D01*
X791054Y1111905D01*
D02*
G37*
%LPC*%
G36*
X394222Y1004302D02*
X378860D01*
Y1002039D01*
X376320D01*
Y1004302D01*
X360958D01*
Y997190D01*
X363221D01*
Y994650D01*
X360958D01*
Y987538D01*
X376320D01*
Y989801D01*
X378860D01*
Y987538D01*
X394222D01*
Y994650D01*
X391959D01*
Y997190D01*
X394222D01*
Y1004302D01*
D02*
G37*
G36*
X796222Y1090392D02*
X788210D01*
Y1088129D01*
X785670D01*
Y1090392D01*
X777658D01*
Y1071880D01*
X779921D01*
Y1069340D01*
X777658D01*
Y1050828D01*
X785670D01*
Y1053091D01*
X788210D01*
Y1050828D01*
X796222D01*
Y1069340D01*
X793959D01*
Y1071880D01*
X796222D01*
Y1090392D01*
D02*
G37*
G36*
X333680Y1084560D02*
X312100D01*
Y1045180D01*
X333680D01*
Y1084560D01*
D02*
G37*
G36*
X394222Y1034302D02*
X378860D01*
Y1032039D01*
X376320D01*
Y1034302D01*
X360958D01*
Y1027190D01*
X363221D01*
Y1024650D01*
X360958D01*
Y1017538D01*
X376320D01*
Y1019801D01*
X378860D01*
Y1017538D01*
X394222D01*
Y1024650D01*
X391959D01*
Y1027190D01*
X394222D01*
Y1034302D01*
D02*
G37*
G36*
X796222Y1031337D02*
X788210D01*
Y1029074D01*
X785670D01*
Y1031337D01*
X777658D01*
Y1012825D01*
X779921D01*
Y1010285D01*
X777658D01*
Y991773D01*
X785670D01*
Y994036D01*
X788210D01*
Y991773D01*
X796222D01*
Y1010285D01*
X793959D01*
Y1012825D01*
X796222D01*
Y1031337D01*
D02*
G37*
G36*
Y972282D02*
X788210D01*
Y970019D01*
X785670D01*
Y972282D01*
X777658D01*
Y953770D01*
X779921D01*
Y951230D01*
X777658D01*
Y932718D01*
X785670D01*
Y934981D01*
X788210D01*
Y932718D01*
X796222D01*
Y951230D01*
X793959D01*
Y953770D01*
X796222D01*
Y972282D01*
D02*
G37*
G36*
X333680Y976660D02*
X312100D01*
Y937280D01*
X333680D01*
Y976660D01*
D02*
G37*
%LPD*%
D13*
X377590Y1025920D02*
D03*
Y995920D02*
D03*
D14*
X322890Y956970D02*
D03*
Y1064870D02*
D03*
D15*
X786940Y1070610D02*
D03*
Y1011555D02*
D03*
Y952500D02*
D03*
X729440D02*
D03*
Y1011555D02*
D03*
Y1070610D02*
D03*
D16*
X459800Y952500D02*
D03*
X431800D02*
D03*
X459800Y1070610D02*
D03*
X431800D02*
D03*
X581070Y952500D02*
D03*
X553070D02*
D03*
X459800Y1011555D02*
D03*
X431800D02*
D03*
X641705D02*
D03*
X613705D02*
D03*
X702340Y952500D02*
D03*
X674340D02*
D03*
X702340Y1011555D02*
D03*
X674340D02*
D03*
X702340Y1070610D02*
D03*
X674340D02*
D03*
X641705Y952500D02*
D03*
X613705D02*
D03*
X641705Y1070610D02*
D03*
X613705D02*
D03*
X581070Y1011555D02*
D03*
X553070D02*
D03*
X581070Y1070610D02*
D03*
X553070D02*
D03*
X520435Y952500D02*
D03*
X492435D02*
D03*
X520435Y1011555D02*
D03*
X492435D02*
D03*
X520435Y1070610D02*
D03*
X492435D02*
D03*
D17*
X445800Y952500D02*
D03*
Y1070610D02*
D03*
X567070Y952500D02*
D03*
X445800Y1011555D02*
D03*
X627705D02*
D03*
X688340Y952500D02*
D03*
Y1011555D02*
D03*
Y1070610D02*
D03*
X627705Y952500D02*
D03*
Y1070610D02*
D03*
X567070Y1011555D02*
D03*
Y1070610D02*
D03*
X506435Y952500D02*
D03*
Y1011555D02*
D03*
Y1070610D02*
D03*
M02*
