G04*
G04 #@! TF.GenerationSoftware,Altium Limited,Altium Designer,26.1.1 (7)*
G04*
G04 Layer_Color=65535*
%FSLAX44Y44*%
%MOMM*%
G71*
G04*
G04 #@! TF.SameCoordinates,8CB19A78-59BC-4A0B-BB1C-583499A9BDC7*
G04*
G04*
G04 #@! TF.FilePolarity,Positive*
G04*
G01*
G75*
%ADD10C,0.2000*%
%ADD11C,0.1500*%
%ADD12C,0.2540*%
D10*
X468800Y952500D02*
G03*
X467800Y952500I-500J0D01*
G01*
D02*
G03*
X468800Y952500I500J0D01*
G01*
D02*
G03*
X467800Y952500I-500J0D01*
G01*
X468800Y1070610D02*
G03*
X467800Y1070610I-500J0D01*
G01*
D02*
G03*
X468800Y1070610I500J0D01*
G01*
D02*
G03*
X467800Y1070610I-500J0D01*
G01*
X590070Y952500D02*
G03*
X589070Y952500I-500J0D01*
G01*
D02*
G03*
X590070Y952500I500J0D01*
G01*
D02*
G03*
X589070Y952500I-500J0D01*
G01*
X468800Y1011555D02*
G03*
X467800Y1011555I-500J0D01*
G01*
D02*
G03*
X468800Y1011555I500J0D01*
G01*
D02*
G03*
X467800Y1011555I-500J0D01*
G01*
X650705D02*
G03*
X649705Y1011555I-500J0D01*
G01*
D02*
G03*
X650705Y1011555I500J0D01*
G01*
D02*
G03*
X649705Y1011555I-500J0D01*
G01*
X711340Y952500D02*
G03*
X710340Y952500I-500J0D01*
G01*
D02*
G03*
X711340Y952500I500J0D01*
G01*
D02*
G03*
X710340Y952500I-500J0D01*
G01*
X711340Y1011555D02*
G03*
X710340Y1011555I-500J0D01*
G01*
D02*
G03*
X711340Y1011555I500J0D01*
G01*
D02*
G03*
X710340Y1011555I-500J0D01*
G01*
X711340Y1070610D02*
G03*
X710340Y1070610I-500J0D01*
G01*
D02*
G03*
X711340Y1070610I500J0D01*
G01*
D02*
G03*
X710340Y1070610I-500J0D01*
G01*
X650705Y952500D02*
G03*
X649705Y952500I-500J0D01*
G01*
D02*
G03*
X650705Y952500I500J0D01*
G01*
D02*
G03*
X649705Y952500I-500J0D01*
G01*
X650705Y1070610D02*
G03*
X649705Y1070610I-500J0D01*
G01*
D02*
G03*
X650705Y1070610I500J0D01*
G01*
D02*
G03*
X649705Y1070610I-500J0D01*
G01*
X590070Y1011555D02*
G03*
X589070Y1011555I-500J0D01*
G01*
D02*
G03*
X590070Y1011555I500J0D01*
G01*
D02*
G03*
X589070Y1011555I-500J0D01*
G01*
X590070Y1070610D02*
G03*
X589070Y1070610I-500J0D01*
G01*
D02*
G03*
X590070Y1070610I500J0D01*
G01*
D02*
G03*
X589070Y1070610I-500J0D01*
G01*
X529435Y952500D02*
G03*
X528435Y952500I-500J0D01*
G01*
D02*
G03*
X529435Y952500I500J0D01*
G01*
D02*
G03*
X528435Y952500I-500J0D01*
G01*
X529435Y1011555D02*
G03*
X528435Y1011555I-500J0D01*
G01*
D02*
G03*
X529435Y1011555I500J0D01*
G01*
D02*
G03*
X528435Y1011555I-500J0D01*
G01*
X529435Y1070610D02*
G03*
X528435Y1070610I-500J0D01*
G01*
D02*
G03*
X529435Y1070610I500J0D01*
G01*
D02*
G03*
X528435Y1070610I-500J0D01*
G01*
X740690Y935750D02*
X775690D01*
X740690Y969250D02*
X775690D01*
X740690Y994805D02*
X775690D01*
X740690Y1028305D02*
X775690D01*
X740690Y1053860D02*
X775690D01*
X740690Y1087360D02*
X775690D01*
D11*
X752755Y975401D02*
Y980399D01*
X755254D01*
X756087Y979566D01*
Y977900D01*
X755254Y977067D01*
X752755D01*
X754421D02*
X756087Y975401D01*
X757753Y979566D02*
X758586Y980399D01*
X760252D01*
X761085Y979566D01*
Y978733D01*
X760252Y977900D01*
X759419D01*
X760252D01*
X761085Y977067D01*
Y976234D01*
X760252Y975401D01*
X758586D01*
X757753Y976234D01*
X752755Y1033821D02*
Y1038819D01*
X755254D01*
X756087Y1037986D01*
Y1036320D01*
X755254Y1035487D01*
X752755D01*
X754421D02*
X756087Y1033821D01*
X761085D02*
X757753D01*
X761085Y1037153D01*
Y1037986D01*
X760252Y1038819D01*
X758586D01*
X757753Y1037986D01*
X753588Y1092241D02*
Y1097239D01*
X756087D01*
X756920Y1096406D01*
Y1094740D01*
X756087Y1093907D01*
X753588D01*
X755254D02*
X756920Y1092241D01*
X758586D02*
X760252D01*
X759419D01*
Y1097239D01*
X758586Y1096406D01*
X435357Y977989D02*
Y972990D01*
X438689D01*
X443687Y977989D02*
X440355D01*
Y972990D01*
X443687D01*
X440355Y975490D02*
X442021D01*
X445354Y977989D02*
Y972990D01*
X447853D01*
X448686Y973823D01*
Y977156D01*
X447853Y977989D01*
X445354D01*
X450352Y972990D02*
X452018D01*
X451185D01*
Y977989D01*
X450352Y977156D01*
X454517Y972990D02*
X456183D01*
X455350D01*
Y977989D01*
X454517Y977156D01*
X436606Y1037549D02*
Y1032551D01*
X439939D01*
X444937Y1037549D02*
X441605D01*
Y1032551D01*
X444937D01*
X441605Y1035050D02*
X443271D01*
X446603Y1037549D02*
Y1032551D01*
X449102D01*
X449935Y1033384D01*
Y1036716D01*
X449102Y1037549D01*
X446603D01*
X454934D02*
X453268Y1036716D01*
X451601Y1035050D01*
Y1033384D01*
X452435Y1032551D01*
X454101D01*
X454934Y1033384D01*
Y1034217D01*
X454101Y1035050D01*
X451601D01*
X437439Y1095969D02*
Y1090971D01*
X440772D01*
X445770Y1095969D02*
X442438D01*
Y1090971D01*
X445770D01*
X442438Y1093470D02*
X444104D01*
X447436Y1095969D02*
Y1090971D01*
X449935D01*
X450768Y1091804D01*
Y1095136D01*
X449935Y1095969D01*
X447436D01*
X452435Y1090971D02*
X454101D01*
X453268D01*
Y1095969D01*
X452435Y1095136D01*
X494541Y977989D02*
Y972990D01*
X497874D01*
X502872Y977989D02*
X499540D01*
Y972990D01*
X502872D01*
X499540Y975490D02*
X501206D01*
X504538Y977989D02*
Y972990D01*
X507037D01*
X507870Y973823D01*
Y977156D01*
X507037Y977989D01*
X504538D01*
X509536Y972990D02*
X511203D01*
X510369D01*
Y977989D01*
X509536Y977156D01*
X517034Y972990D02*
X513702D01*
X517034Y976322D01*
Y977156D01*
X516201Y977989D01*
X514535D01*
X513702Y977156D01*
X497566Y1037549D02*
Y1032551D01*
X500899D01*
X505897Y1037549D02*
X502565D01*
Y1032551D01*
X505897D01*
X502565Y1035050D02*
X504231D01*
X507563Y1037549D02*
Y1032551D01*
X510062D01*
X510895Y1033384D01*
Y1036716D01*
X510062Y1037549D01*
X507563D01*
X512561D02*
X515894D01*
Y1036716D01*
X512561Y1033384D01*
Y1032551D01*
X496296Y1095969D02*
Y1090971D01*
X499629D01*
X504627Y1095969D02*
X501295D01*
Y1090971D01*
X504627D01*
X501295Y1093470D02*
X502961D01*
X506293Y1095969D02*
Y1090971D01*
X508792D01*
X509625Y1091804D01*
Y1095136D01*
X508792Y1095969D01*
X506293D01*
X514624Y1090971D02*
X511291D01*
X514624Y1094303D01*
Y1095136D01*
X513791Y1095969D01*
X512124D01*
X511291Y1095136D01*
X555392Y977989D02*
Y972990D01*
X558724D01*
X563723Y977989D02*
X560391D01*
Y972990D01*
X563723D01*
X560391Y975490D02*
X562057D01*
X565389Y977989D02*
Y972990D01*
X567888D01*
X568721Y973823D01*
Y977156D01*
X567888Y977989D01*
X565389D01*
X570387Y972990D02*
X572053D01*
X571220D01*
Y977989D01*
X570387Y977156D01*
X574552D02*
X575386Y977989D01*
X577052D01*
X577885Y977156D01*
Y976322D01*
X577052Y975490D01*
X576219D01*
X577052D01*
X577885Y974656D01*
Y973823D01*
X577052Y972990D01*
X575386D01*
X574552Y973823D01*
X557256Y1037549D02*
Y1032551D01*
X560589D01*
X565587Y1037549D02*
X562255D01*
Y1032551D01*
X565587D01*
X562255Y1035050D02*
X563921D01*
X567253Y1037549D02*
Y1032551D01*
X569752D01*
X570585Y1033384D01*
Y1036716D01*
X569752Y1037549D01*
X567253D01*
X572251Y1036716D02*
X573084Y1037549D01*
X574751D01*
X575584Y1036716D01*
Y1035883D01*
X574751Y1035050D01*
X575584Y1034217D01*
Y1033384D01*
X574751Y1032551D01*
X573084D01*
X572251Y1033384D01*
Y1034217D01*
X573084Y1035050D01*
X572251Y1035883D01*
Y1036716D01*
X573084Y1035050D02*
X574751D01*
X557256Y1095969D02*
Y1090971D01*
X560589D01*
X565587Y1095969D02*
X562255D01*
Y1090971D01*
X565587D01*
X562255Y1093470D02*
X563921D01*
X567253Y1095969D02*
Y1090971D01*
X569752D01*
X570585Y1091804D01*
Y1095136D01*
X569752Y1095969D01*
X567253D01*
X572251Y1095136D02*
X573084Y1095969D01*
X574751D01*
X575584Y1095136D01*
Y1094303D01*
X574751Y1093470D01*
X573918D01*
X574751D01*
X575584Y1092637D01*
Y1091804D01*
X574751Y1090971D01*
X573084D01*
X572251Y1091804D01*
X616243Y977989D02*
Y972990D01*
X619575D01*
X624574Y977989D02*
X621241D01*
Y972990D01*
X624574D01*
X621241Y975490D02*
X622907D01*
X626240Y977989D02*
Y972990D01*
X628739D01*
X629572Y973823D01*
Y977156D01*
X628739Y977989D01*
X626240D01*
X631238Y972990D02*
X632904D01*
X632071D01*
Y977989D01*
X631238Y977156D01*
X637902Y972990D02*
Y977989D01*
X635403Y975490D01*
X638736D01*
X618216Y1037549D02*
Y1032551D01*
X621549D01*
X626547Y1037549D02*
X623215D01*
Y1032551D01*
X626547D01*
X623215Y1035050D02*
X624881D01*
X628213Y1037549D02*
Y1032551D01*
X630712D01*
X631545Y1033384D01*
Y1036716D01*
X630712Y1037549D01*
X628213D01*
X633211Y1033384D02*
X634044Y1032551D01*
X635711D01*
X636544Y1033384D01*
Y1036716D01*
X635711Y1037549D01*
X634044D01*
X633211Y1036716D01*
Y1035883D01*
X634044Y1035050D01*
X636544D01*
X618216Y1095969D02*
Y1090971D01*
X621549D01*
X626547Y1095969D02*
X623215D01*
Y1090971D01*
X626547D01*
X623215Y1093470D02*
X624881D01*
X628213Y1095969D02*
Y1090971D01*
X630712D01*
X631545Y1091804D01*
Y1095136D01*
X630712Y1095969D01*
X628213D01*
X635711Y1090971D02*
Y1095969D01*
X633211Y1093470D01*
X636544D01*
X677094Y977989D02*
Y972990D01*
X680426D01*
X685424Y977989D02*
X682092D01*
Y972990D01*
X685424D01*
X682092Y975490D02*
X683758D01*
X687090Y977989D02*
Y972990D01*
X689589D01*
X690423Y973823D01*
Y977156D01*
X689589Y977989D01*
X687090D01*
X692089Y972990D02*
X693755D01*
X692922D01*
Y977989D01*
X692089Y977156D01*
X699586Y977989D02*
X696254D01*
Y975490D01*
X697920Y976322D01*
X698753D01*
X699586Y975490D01*
Y973823D01*
X698753Y972990D01*
X697087D01*
X696254Y973823D01*
X677094Y1037549D02*
Y1032551D01*
X680426D01*
X685424Y1037549D02*
X682092D01*
Y1032551D01*
X685424D01*
X682092Y1035050D02*
X683758D01*
X687090Y1037549D02*
Y1032551D01*
X689590D01*
X690423Y1033384D01*
Y1036716D01*
X689590Y1037549D01*
X687090D01*
X692089Y1032551D02*
X693755D01*
X692922D01*
Y1037549D01*
X692089Y1036716D01*
X696254D02*
X697087Y1037549D01*
X698753D01*
X699586Y1036716D01*
Y1033384D01*
X698753Y1032551D01*
X697087D01*
X696254Y1033384D01*
Y1036716D01*
X679176Y1095969D02*
Y1090971D01*
X682509D01*
X687507Y1095969D02*
X684175D01*
Y1090971D01*
X687507D01*
X684175Y1093470D02*
X685841D01*
X689173Y1095969D02*
Y1090971D01*
X691672D01*
X692505Y1091804D01*
Y1095136D01*
X691672Y1095969D01*
X689173D01*
X697504D02*
X694171D01*
Y1093470D01*
X695837Y1094303D01*
X696671D01*
X697504Y1093470D01*
Y1091804D01*
X696671Y1090971D01*
X695005D01*
X694171Y1091804D01*
D12*
X327663Y1004573D02*
Y1019808D01*
X335281D01*
X337820Y1017268D01*
Y1012190D01*
X335281Y1009651D01*
X327663D01*
X342898Y1004573D02*
X347977D01*
X345438D01*
Y1019808D01*
X342898Y1017268D01*
M02*
