G04*
G04 #@! TF.GenerationSoftware,Altium Limited,Altium Designer,26.1.1 (7)*
G04*
G04 Layer_Color=16711935*
%FSLAX44Y44*%
%MOMM*%
G71*
G04*
G04 #@! TF.SameCoordinates,9D236B75-9A83-40E6-9D43-DAE6B6F29194*
G04*
G04*
G04 #@! TF.FilePolarity,Positive*
G04*
G01*
G75*
%ADD12C,0.2540*%
%ADD21C,0.0800*%
D12*
X666750Y1188090D02*
G03*
X626750Y1228090I-40000J0D01*
G01*
Y1029970D02*
G03*
X666750Y1069970I0J40000D01*
G01*
X300350Y1228090D02*
G03*
X260350Y1188090I0J-40000D01*
G01*
Y1069970D02*
G03*
X300350Y1029970I40000J0D01*
G01*
X626750D01*
X300350Y1228090D02*
X626750D01*
X666750Y1069970D02*
Y1188090D01*
X260350Y1069970D02*
Y1188090D01*
D21*
X399490Y1135670D02*
X426010D01*
X399490Y1109150D02*
X426010D01*
Y1135670D01*
X399490Y1109150D02*
Y1135670D01*
X445464D02*
X471984D01*
X445464Y1109150D02*
X471984D01*
Y1135670D01*
X445464Y1109150D02*
Y1135670D01*
X491438D02*
X517958D01*
X491438Y1109150D02*
X517958D01*
Y1135670D01*
X491438Y1109150D02*
Y1135670D01*
X629360D02*
X655880D01*
X629360Y1109150D02*
X655880D01*
Y1135670D01*
X629360Y1109150D02*
Y1135670D01*
X537412D02*
X563932D01*
X537412Y1109150D02*
X563932D01*
Y1135670D01*
X537412Y1109150D02*
Y1135670D01*
X583386D02*
X609906D01*
X583386Y1109150D02*
X609906D01*
Y1135670D01*
X583386Y1109150D02*
Y1135670D01*
X445464Y1059620D02*
Y1086140D01*
X471984Y1059620D02*
Y1086140D01*
X445464Y1059620D02*
X471984D01*
X445464Y1086140D02*
X471984D01*
X491438Y1059240D02*
Y1085760D01*
X517958Y1059240D02*
Y1085760D01*
X491438Y1059240D02*
X517958D01*
X491438Y1085760D02*
X517958D01*
X629360Y1059620D02*
Y1086140D01*
X655880Y1059620D02*
Y1086140D01*
X629360Y1059620D02*
X655880D01*
X629360Y1086140D02*
X655880D01*
X537412Y1059620D02*
Y1086140D01*
X563932Y1059620D02*
Y1086140D01*
X537412Y1059620D02*
X563932D01*
X537412Y1086140D02*
X563932D01*
X583386Y1059240D02*
Y1085760D01*
X609906Y1059240D02*
Y1085760D01*
X583386Y1059240D02*
X609906D01*
X583386Y1085760D02*
X609906D01*
X399490Y1086140D02*
X426010D01*
X399490Y1059620D02*
X426010D01*
Y1086140D01*
X399490Y1059620D02*
Y1086140D01*
M02*
