G04*
G04 #@! TF.GenerationSoftware,Altium Limited,Altium Designer,26.1.1 (7)*
G04*
G04 Layer_Color=8388736*
%FSLAX44Y44*%
%MOMM*%
G71*
G04*
G04 #@! TF.SameCoordinates,9D236B75-9A83-40E6-9D43-DAE6B6F29194*
G04*
G04*
G04 #@! TF.FilePolarity,Negative*
G04*
G01*
G75*
%ADD16R,1.8532X3.6332*%
%ADD17R,3.1232X1.4732*%
%ADD18R,2.5032X1.4532*%
G36*
X516831Y1138419D02*
X516962Y1138393D01*
X517088Y1138351D01*
X517207Y1138292D01*
X517318Y1138218D01*
X517418Y1138130D01*
X517506Y1138030D01*
X517580Y1137919D01*
X517639Y1137800D01*
X517682Y1137673D01*
X517707Y1137543D01*
X517716Y1137410D01*
Y1121410D01*
X517707Y1121277D01*
X517682Y1121146D01*
X517639Y1121020D01*
X517580Y1120901D01*
X517506Y1120790D01*
X517418Y1120690D01*
X517318Y1120602D01*
X517207Y1120528D01*
X517088Y1120469D01*
X516962Y1120426D01*
X516831Y1120400D01*
X516698Y1120392D01*
X492698D01*
X492565Y1120400D01*
X492434Y1120426D01*
X492308Y1120469D01*
X492189Y1120528D01*
X492078Y1120602D01*
X491978Y1120690D01*
X491890Y1120790D01*
X491816Y1120901D01*
X491757Y1121020D01*
X491715Y1121146D01*
X491688Y1121277D01*
X491680Y1121410D01*
Y1137410D01*
X491688Y1137543D01*
X491715Y1137673D01*
X491757Y1137800D01*
X491816Y1137919D01*
X491890Y1138030D01*
X491978Y1138130D01*
X492078Y1138218D01*
X492189Y1138292D01*
X492308Y1138351D01*
X492434Y1138393D01*
X492565Y1138419D01*
X492698Y1138428D01*
X516698D01*
X516831Y1138419D01*
D02*
G37*
G36*
X470857D02*
X470988Y1138393D01*
X471114Y1138351D01*
X471233Y1138292D01*
X471344Y1138218D01*
X471444Y1138130D01*
X471532Y1138030D01*
X471606Y1137919D01*
X471665Y1137800D01*
X471707Y1137673D01*
X471733Y1137543D01*
X471742Y1137410D01*
Y1121410D01*
X471733Y1121277D01*
X471707Y1121146D01*
X471665Y1121020D01*
X471606Y1120901D01*
X471532Y1120790D01*
X471444Y1120690D01*
X471344Y1120602D01*
X471233Y1120528D01*
X471114Y1120469D01*
X470988Y1120426D01*
X470857Y1120400D01*
X470724Y1120392D01*
X446724D01*
X446591Y1120400D01*
X446460Y1120426D01*
X446334Y1120469D01*
X446215Y1120528D01*
X446104Y1120602D01*
X446004Y1120690D01*
X445916Y1120790D01*
X445842Y1120901D01*
X445783Y1121020D01*
X445741Y1121146D01*
X445714Y1121277D01*
X445706Y1121410D01*
Y1137410D01*
X445714Y1137543D01*
X445741Y1137673D01*
X445783Y1137800D01*
X445842Y1137919D01*
X445916Y1138030D01*
X446004Y1138130D01*
X446104Y1138218D01*
X446215Y1138292D01*
X446334Y1138351D01*
X446460Y1138393D01*
X446591Y1138419D01*
X446724Y1138428D01*
X470724D01*
X470857Y1138419D01*
D02*
G37*
G36*
X424883D02*
X425014Y1138393D01*
X425140Y1138351D01*
X425259Y1138292D01*
X425370Y1138218D01*
X425470Y1138130D01*
X425558Y1138030D01*
X425632Y1137919D01*
X425691Y1137800D01*
X425733Y1137673D01*
X425759Y1137543D01*
X425768Y1137410D01*
Y1121410D01*
X425759Y1121277D01*
X425733Y1121146D01*
X425691Y1121020D01*
X425632Y1120901D01*
X425558Y1120790D01*
X425470Y1120690D01*
X425370Y1120602D01*
X425259Y1120528D01*
X425140Y1120469D01*
X425014Y1120426D01*
X424883Y1120400D01*
X424750Y1120392D01*
X400750D01*
X400617Y1120400D01*
X400486Y1120426D01*
X400360Y1120469D01*
X400241Y1120528D01*
X400130Y1120602D01*
X400030Y1120690D01*
X399942Y1120790D01*
X399868Y1120901D01*
X399809Y1121020D01*
X399767Y1121146D01*
X399740Y1121277D01*
X399732Y1121410D01*
Y1137410D01*
X399740Y1137543D01*
X399767Y1137673D01*
X399809Y1137800D01*
X399868Y1137919D01*
X399942Y1138030D01*
X400030Y1138130D01*
X400130Y1138218D01*
X400241Y1138292D01*
X400360Y1138351D01*
X400486Y1138393D01*
X400617Y1138419D01*
X400750Y1138428D01*
X424750D01*
X424883Y1138419D01*
D02*
G37*
G36*
X516831Y1116919D02*
X516962Y1116893D01*
X517088Y1116851D01*
X517207Y1116792D01*
X517318Y1116718D01*
X517418Y1116630D01*
X517506Y1116530D01*
X517580Y1116419D01*
X517639Y1116300D01*
X517682Y1116173D01*
X517707Y1116043D01*
X517716Y1115910D01*
Y1109910D01*
X517707Y1109777D01*
X517682Y1109647D01*
X517639Y1109520D01*
X517580Y1109401D01*
X517506Y1109290D01*
X517418Y1109190D01*
X517318Y1109102D01*
X517207Y1109028D01*
X517088Y1108969D01*
X516962Y1108926D01*
X516831Y1108901D01*
X516698Y1108892D01*
X508216D01*
Y1106910D01*
X508207Y1106777D01*
X508181Y1106646D01*
X508139Y1106520D01*
X508080Y1106401D01*
X508006Y1106290D01*
X507918Y1106190D01*
X507818Y1106102D01*
X507707Y1106028D01*
X507588Y1105969D01*
X507462Y1105927D01*
X507331Y1105900D01*
X507198Y1105892D01*
X502198D01*
X502065Y1105900D01*
X501935Y1105927D01*
X501808Y1105969D01*
X501689Y1106028D01*
X501578Y1106102D01*
X501478Y1106190D01*
X501390Y1106290D01*
X501316Y1106401D01*
X501257Y1106520D01*
X501214Y1106646D01*
X501189Y1106777D01*
X501180Y1106910D01*
Y1108892D01*
X492698D01*
X492565Y1108901D01*
X492434Y1108926D01*
X492308Y1108969D01*
X492189Y1109028D01*
X492078Y1109102D01*
X491978Y1109190D01*
X491890Y1109290D01*
X491816Y1109401D01*
X491757Y1109520D01*
X491715Y1109647D01*
X491688Y1109777D01*
X491680Y1109910D01*
Y1115910D01*
X491688Y1116043D01*
X491715Y1116173D01*
X491757Y1116300D01*
X491816Y1116419D01*
X491890Y1116530D01*
X491978Y1116630D01*
X492078Y1116718D01*
X492189Y1116792D01*
X492308Y1116851D01*
X492434Y1116893D01*
X492565Y1116919D01*
X492698Y1116928D01*
X516698D01*
X516831Y1116919D01*
D02*
G37*
G36*
X470857D02*
X470988Y1116893D01*
X471114Y1116851D01*
X471233Y1116792D01*
X471344Y1116718D01*
X471444Y1116630D01*
X471532Y1116530D01*
X471606Y1116419D01*
X471665Y1116300D01*
X471707Y1116173D01*
X471733Y1116043D01*
X471742Y1115910D01*
Y1109910D01*
X471733Y1109777D01*
X471707Y1109647D01*
X471665Y1109520D01*
X471606Y1109401D01*
X471532Y1109290D01*
X471444Y1109190D01*
X471344Y1109102D01*
X471233Y1109028D01*
X471114Y1108969D01*
X470988Y1108926D01*
X470857Y1108901D01*
X470724Y1108892D01*
X462242D01*
Y1106910D01*
X462233Y1106777D01*
X462207Y1106646D01*
X462165Y1106520D01*
X462106Y1106401D01*
X462032Y1106290D01*
X461944Y1106190D01*
X461844Y1106102D01*
X461733Y1106028D01*
X461614Y1105969D01*
X461488Y1105927D01*
X461357Y1105900D01*
X461224Y1105892D01*
X456224D01*
X456091Y1105900D01*
X455961Y1105927D01*
X455834Y1105969D01*
X455715Y1106028D01*
X455604Y1106102D01*
X455504Y1106190D01*
X455416Y1106290D01*
X455342Y1106401D01*
X455283Y1106520D01*
X455241Y1106646D01*
X455215Y1106777D01*
X455206Y1106910D01*
Y1108892D01*
X446724D01*
X446591Y1108901D01*
X446460Y1108926D01*
X446334Y1108969D01*
X446215Y1109028D01*
X446104Y1109102D01*
X446004Y1109190D01*
X445916Y1109290D01*
X445842Y1109401D01*
X445783Y1109520D01*
X445741Y1109647D01*
X445714Y1109777D01*
X445706Y1109910D01*
Y1115910D01*
X445714Y1116043D01*
X445741Y1116173D01*
X445783Y1116300D01*
X445842Y1116419D01*
X445916Y1116530D01*
X446004Y1116630D01*
X446104Y1116718D01*
X446215Y1116792D01*
X446334Y1116851D01*
X446460Y1116893D01*
X446591Y1116919D01*
X446724Y1116928D01*
X470724D01*
X470857Y1116919D01*
D02*
G37*
G36*
X424883D02*
X425014Y1116893D01*
X425140Y1116851D01*
X425259Y1116792D01*
X425370Y1116718D01*
X425470Y1116630D01*
X425558Y1116530D01*
X425632Y1116419D01*
X425691Y1116300D01*
X425733Y1116173D01*
X425759Y1116043D01*
X425768Y1115910D01*
Y1109910D01*
X425759Y1109777D01*
X425733Y1109647D01*
X425691Y1109520D01*
X425632Y1109401D01*
X425558Y1109290D01*
X425470Y1109190D01*
X425370Y1109102D01*
X425259Y1109028D01*
X425140Y1108969D01*
X425014Y1108926D01*
X424883Y1108901D01*
X424750Y1108892D01*
X416268D01*
Y1106910D01*
X416259Y1106777D01*
X416233Y1106646D01*
X416191Y1106520D01*
X416132Y1106401D01*
X416058Y1106290D01*
X415970Y1106190D01*
X415870Y1106102D01*
X415759Y1106028D01*
X415640Y1105969D01*
X415513Y1105927D01*
X415383Y1105900D01*
X415250Y1105892D01*
X410250D01*
X410117Y1105900D01*
X409986Y1105927D01*
X409860Y1105969D01*
X409741Y1106028D01*
X409630Y1106102D01*
X409530Y1106190D01*
X409442Y1106290D01*
X409368Y1106401D01*
X409309Y1106520D01*
X409267Y1106646D01*
X409240Y1106777D01*
X409232Y1106910D01*
Y1108892D01*
X400750D01*
X400617Y1108901D01*
X400486Y1108926D01*
X400360Y1108969D01*
X400241Y1109028D01*
X400130Y1109102D01*
X400030Y1109190D01*
X399942Y1109290D01*
X399868Y1109401D01*
X399809Y1109520D01*
X399767Y1109647D01*
X399740Y1109777D01*
X399732Y1109910D01*
Y1115910D01*
X399740Y1116043D01*
X399767Y1116173D01*
X399809Y1116300D01*
X399868Y1116419D01*
X399942Y1116530D01*
X400030Y1116630D01*
X400130Y1116718D01*
X400241Y1116792D01*
X400360Y1116851D01*
X400486Y1116893D01*
X400617Y1116919D01*
X400750Y1116928D01*
X424750D01*
X424883Y1116919D01*
D02*
G37*
G36*
X470857Y1088889D02*
X470988Y1088864D01*
X471114Y1088821D01*
X471233Y1088762D01*
X471344Y1088688D01*
X471444Y1088600D01*
X471532Y1088500D01*
X471606Y1088389D01*
X471665Y1088270D01*
X471707Y1088143D01*
X471733Y1088013D01*
X471742Y1087880D01*
Y1071880D01*
X471733Y1071747D01*
X471707Y1071617D01*
X471665Y1071490D01*
X471606Y1071371D01*
X471532Y1071260D01*
X471444Y1071160D01*
X471344Y1071072D01*
X471233Y1070998D01*
X471114Y1070939D01*
X470988Y1070897D01*
X470857Y1070871D01*
X470724Y1070862D01*
X446724D01*
X446591Y1070871D01*
X446460Y1070897D01*
X446334Y1070939D01*
X446215Y1070998D01*
X446104Y1071072D01*
X446004Y1071160D01*
X445916Y1071260D01*
X445842Y1071371D01*
X445783Y1071490D01*
X445741Y1071617D01*
X445714Y1071747D01*
X445706Y1071880D01*
Y1087880D01*
X445714Y1088013D01*
X445741Y1088143D01*
X445783Y1088270D01*
X445842Y1088389D01*
X445916Y1088500D01*
X446004Y1088600D01*
X446104Y1088688D01*
X446215Y1088762D01*
X446334Y1088821D01*
X446460Y1088864D01*
X446591Y1088889D01*
X446724Y1088898D01*
X470724D01*
X470857Y1088889D01*
D02*
G37*
G36*
X424883D02*
X425014Y1088864D01*
X425140Y1088821D01*
X425259Y1088762D01*
X425370Y1088688D01*
X425470Y1088600D01*
X425558Y1088500D01*
X425632Y1088389D01*
X425691Y1088270D01*
X425733Y1088143D01*
X425759Y1088013D01*
X425768Y1087880D01*
Y1071880D01*
X425759Y1071747D01*
X425733Y1071617D01*
X425691Y1071490D01*
X425632Y1071371D01*
X425558Y1071260D01*
X425470Y1071160D01*
X425370Y1071072D01*
X425259Y1070998D01*
X425140Y1070939D01*
X425014Y1070897D01*
X424883Y1070871D01*
X424750Y1070862D01*
X400750D01*
X400617Y1070871D01*
X400486Y1070897D01*
X400360Y1070939D01*
X400241Y1070998D01*
X400130Y1071072D01*
X400030Y1071160D01*
X399942Y1071260D01*
X399868Y1071371D01*
X399809Y1071490D01*
X399767Y1071617D01*
X399740Y1071747D01*
X399732Y1071880D01*
Y1087880D01*
X399740Y1088013D01*
X399767Y1088143D01*
X399809Y1088270D01*
X399868Y1088389D01*
X399942Y1088500D01*
X400030Y1088600D01*
X400130Y1088688D01*
X400241Y1088762D01*
X400360Y1088821D01*
X400486Y1088864D01*
X400617Y1088889D01*
X400750Y1088898D01*
X424750D01*
X424883Y1088889D01*
D02*
G37*
G36*
X516831Y1088510D02*
X516962Y1088484D01*
X517088Y1088441D01*
X517207Y1088382D01*
X517318Y1088308D01*
X517418Y1088220D01*
X517506Y1088120D01*
X517580Y1088009D01*
X517639Y1087890D01*
X517682Y1087764D01*
X517707Y1087633D01*
X517716Y1087500D01*
Y1071500D01*
X517707Y1071367D01*
X517682Y1071236D01*
X517639Y1071110D01*
X517580Y1070991D01*
X517506Y1070880D01*
X517418Y1070780D01*
X517318Y1070692D01*
X517207Y1070618D01*
X517088Y1070559D01*
X516962Y1070517D01*
X516831Y1070490D01*
X516698Y1070482D01*
X492698D01*
X492565Y1070490D01*
X492434Y1070517D01*
X492308Y1070559D01*
X492189Y1070618D01*
X492078Y1070692D01*
X491978Y1070780D01*
X491890Y1070880D01*
X491816Y1070991D01*
X491757Y1071110D01*
X491715Y1071236D01*
X491688Y1071367D01*
X491680Y1071500D01*
Y1087500D01*
X491688Y1087633D01*
X491715Y1087764D01*
X491757Y1087890D01*
X491816Y1088009D01*
X491890Y1088120D01*
X491978Y1088220D01*
X492078Y1088308D01*
X492189Y1088382D01*
X492308Y1088441D01*
X492434Y1088484D01*
X492565Y1088510D01*
X492698Y1088518D01*
X516698D01*
X516831Y1088510D01*
D02*
G37*
G36*
X470857Y1067390D02*
X470988Y1067364D01*
X471114Y1067321D01*
X471233Y1067262D01*
X471344Y1067188D01*
X471444Y1067100D01*
X471532Y1067000D01*
X471606Y1066889D01*
X471665Y1066770D01*
X471707Y1066644D01*
X471733Y1066513D01*
X471742Y1066380D01*
Y1060380D01*
X471733Y1060247D01*
X471707Y1060117D01*
X471665Y1059990D01*
X471606Y1059871D01*
X471532Y1059760D01*
X471444Y1059660D01*
X471344Y1059572D01*
X471233Y1059498D01*
X471114Y1059439D01*
X470988Y1059397D01*
X470857Y1059370D01*
X470724Y1059362D01*
X462242D01*
Y1057380D01*
X462233Y1057247D01*
X462207Y1057116D01*
X462165Y1056990D01*
X462106Y1056871D01*
X462032Y1056760D01*
X461944Y1056660D01*
X461844Y1056572D01*
X461733Y1056498D01*
X461614Y1056439D01*
X461488Y1056396D01*
X461357Y1056370D01*
X461224Y1056362D01*
X456224D01*
X456091Y1056370D01*
X455961Y1056396D01*
X455834Y1056439D01*
X455715Y1056498D01*
X455604Y1056572D01*
X455504Y1056660D01*
X455416Y1056760D01*
X455342Y1056871D01*
X455283Y1056990D01*
X455241Y1057116D01*
X455215Y1057247D01*
X455206Y1057380D01*
Y1059362D01*
X446724D01*
X446591Y1059370D01*
X446460Y1059397D01*
X446334Y1059439D01*
X446215Y1059498D01*
X446104Y1059572D01*
X446004Y1059660D01*
X445916Y1059760D01*
X445842Y1059871D01*
X445783Y1059990D01*
X445741Y1060117D01*
X445714Y1060247D01*
X445706Y1060380D01*
Y1066380D01*
X445714Y1066513D01*
X445741Y1066644D01*
X445783Y1066770D01*
X445842Y1066889D01*
X445916Y1067000D01*
X446004Y1067100D01*
X446104Y1067188D01*
X446215Y1067262D01*
X446334Y1067321D01*
X446460Y1067364D01*
X446591Y1067390D01*
X446724Y1067398D01*
X470724D01*
X470857Y1067390D01*
D02*
G37*
G36*
X424883D02*
X425014Y1067364D01*
X425140Y1067321D01*
X425259Y1067262D01*
X425370Y1067188D01*
X425470Y1067100D01*
X425558Y1067000D01*
X425632Y1066889D01*
X425691Y1066770D01*
X425733Y1066644D01*
X425759Y1066513D01*
X425768Y1066380D01*
Y1060380D01*
X425759Y1060247D01*
X425733Y1060117D01*
X425691Y1059990D01*
X425632Y1059871D01*
X425558Y1059760D01*
X425470Y1059660D01*
X425370Y1059572D01*
X425259Y1059498D01*
X425140Y1059439D01*
X425014Y1059397D01*
X424883Y1059370D01*
X424750Y1059362D01*
X416268D01*
Y1057380D01*
X416259Y1057247D01*
X416233Y1057116D01*
X416191Y1056990D01*
X416132Y1056871D01*
X416058Y1056760D01*
X415970Y1056660D01*
X415870Y1056572D01*
X415759Y1056498D01*
X415640Y1056439D01*
X415513Y1056396D01*
X415383Y1056370D01*
X415250Y1056362D01*
X410250D01*
X410117Y1056370D01*
X409986Y1056396D01*
X409860Y1056439D01*
X409741Y1056498D01*
X409630Y1056572D01*
X409530Y1056660D01*
X409442Y1056760D01*
X409368Y1056871D01*
X409309Y1056990D01*
X409267Y1057116D01*
X409240Y1057247D01*
X409232Y1057380D01*
Y1059362D01*
X400750D01*
X400617Y1059370D01*
X400486Y1059397D01*
X400360Y1059439D01*
X400241Y1059498D01*
X400130Y1059572D01*
X400030Y1059660D01*
X399942Y1059760D01*
X399868Y1059871D01*
X399809Y1059990D01*
X399767Y1060117D01*
X399740Y1060247D01*
X399732Y1060380D01*
Y1066380D01*
X399740Y1066513D01*
X399767Y1066644D01*
X399809Y1066770D01*
X399868Y1066889D01*
X399942Y1067000D01*
X400030Y1067100D01*
X400130Y1067188D01*
X400241Y1067262D01*
X400360Y1067321D01*
X400486Y1067364D01*
X400617Y1067390D01*
X400750Y1067398D01*
X424750D01*
X424883Y1067390D01*
D02*
G37*
G36*
X516831Y1067010D02*
X516962Y1066983D01*
X517088Y1066941D01*
X517207Y1066882D01*
X517318Y1066808D01*
X517418Y1066720D01*
X517506Y1066620D01*
X517580Y1066509D01*
X517639Y1066390D01*
X517682Y1066264D01*
X517707Y1066133D01*
X517716Y1066000D01*
Y1060000D01*
X517707Y1059867D01*
X517682Y1059736D01*
X517639Y1059610D01*
X517580Y1059491D01*
X517506Y1059380D01*
X517418Y1059280D01*
X517318Y1059192D01*
X517207Y1059118D01*
X517088Y1059059D01*
X516962Y1059016D01*
X516831Y1058990D01*
X516698Y1058982D01*
X508216D01*
Y1057000D01*
X508207Y1056867D01*
X508181Y1056737D01*
X508139Y1056610D01*
X508080Y1056491D01*
X508006Y1056380D01*
X507918Y1056280D01*
X507818Y1056192D01*
X507707Y1056118D01*
X507588Y1056059D01*
X507462Y1056016D01*
X507331Y1055991D01*
X507198Y1055982D01*
X502198D01*
X502065Y1055991D01*
X501935Y1056016D01*
X501808Y1056059D01*
X501689Y1056118D01*
X501578Y1056192D01*
X501478Y1056280D01*
X501390Y1056380D01*
X501316Y1056491D01*
X501257Y1056610D01*
X501214Y1056737D01*
X501189Y1056867D01*
X501180Y1057000D01*
Y1058982D01*
X492698D01*
X492565Y1058990D01*
X492434Y1059016D01*
X492308Y1059059D01*
X492189Y1059118D01*
X492078Y1059192D01*
X491978Y1059280D01*
X491890Y1059380D01*
X491816Y1059491D01*
X491757Y1059610D01*
X491715Y1059736D01*
X491688Y1059867D01*
X491680Y1060000D01*
Y1066000D01*
X491688Y1066133D01*
X491715Y1066264D01*
X491757Y1066390D01*
X491816Y1066509D01*
X491890Y1066620D01*
X491978Y1066720D01*
X492078Y1066808D01*
X492189Y1066882D01*
X492308Y1066941D01*
X492434Y1066983D01*
X492565Y1067010D01*
X492698Y1067018D01*
X516698D01*
X516831Y1067010D01*
D02*
G37*
G36*
X654753Y1138419D02*
X654883Y1138393D01*
X655010Y1138351D01*
X655129Y1138292D01*
X655240Y1138218D01*
X655340Y1138130D01*
X655428Y1138030D01*
X655502Y1137919D01*
X655561Y1137800D01*
X655603Y1137673D01*
X655629Y1137543D01*
X655638Y1137410D01*
Y1121410D01*
X655629Y1121277D01*
X655603Y1121146D01*
X655561Y1121020D01*
X655502Y1120901D01*
X655428Y1120790D01*
X655340Y1120690D01*
X655240Y1120602D01*
X655129Y1120528D01*
X655010Y1120469D01*
X654883Y1120426D01*
X654753Y1120400D01*
X654620Y1120392D01*
X630620D01*
X630487Y1120400D01*
X630356Y1120426D01*
X630230Y1120469D01*
X630111Y1120528D01*
X630000Y1120602D01*
X629900Y1120690D01*
X629812Y1120790D01*
X629738Y1120901D01*
X629679Y1121020D01*
X629636Y1121146D01*
X629610Y1121277D01*
X629602Y1121410D01*
Y1137410D01*
X629610Y1137543D01*
X629636Y1137673D01*
X629679Y1137800D01*
X629738Y1137919D01*
X629812Y1138030D01*
X629900Y1138130D01*
X630000Y1138218D01*
X630111Y1138292D01*
X630230Y1138351D01*
X630356Y1138393D01*
X630487Y1138419D01*
X630620Y1138428D01*
X654620D01*
X654753Y1138419D01*
D02*
G37*
G36*
X608779D02*
X608909Y1138393D01*
X609036Y1138351D01*
X609155Y1138292D01*
X609266Y1138218D01*
X609366Y1138130D01*
X609454Y1138030D01*
X609528Y1137919D01*
X609587Y1137800D01*
X609630Y1137673D01*
X609655Y1137543D01*
X609664Y1137410D01*
Y1121410D01*
X609655Y1121277D01*
X609630Y1121146D01*
X609587Y1121020D01*
X609528Y1120901D01*
X609454Y1120790D01*
X609366Y1120690D01*
X609266Y1120602D01*
X609155Y1120528D01*
X609036Y1120469D01*
X608909Y1120426D01*
X608779Y1120400D01*
X608646Y1120392D01*
X584646D01*
X584513Y1120400D01*
X584382Y1120426D01*
X584256Y1120469D01*
X584137Y1120528D01*
X584026Y1120602D01*
X583926Y1120690D01*
X583838Y1120790D01*
X583764Y1120901D01*
X583705Y1121020D01*
X583662Y1121146D01*
X583637Y1121277D01*
X583628Y1121410D01*
Y1137410D01*
X583637Y1137543D01*
X583662Y1137673D01*
X583705Y1137800D01*
X583764Y1137919D01*
X583838Y1138030D01*
X583926Y1138130D01*
X584026Y1138218D01*
X584137Y1138292D01*
X584256Y1138351D01*
X584382Y1138393D01*
X584513Y1138419D01*
X584646Y1138428D01*
X608646D01*
X608779Y1138419D01*
D02*
G37*
G36*
X562805D02*
X562935Y1138393D01*
X563062Y1138351D01*
X563181Y1138292D01*
X563292Y1138218D01*
X563392Y1138130D01*
X563480Y1138030D01*
X563554Y1137919D01*
X563613Y1137800D01*
X563656Y1137673D01*
X563681Y1137543D01*
X563690Y1137410D01*
Y1121410D01*
X563681Y1121277D01*
X563656Y1121146D01*
X563613Y1121020D01*
X563554Y1120901D01*
X563480Y1120790D01*
X563392Y1120690D01*
X563292Y1120602D01*
X563181Y1120528D01*
X563062Y1120469D01*
X562935Y1120426D01*
X562805Y1120400D01*
X562672Y1120392D01*
X538672D01*
X538539Y1120400D01*
X538408Y1120426D01*
X538282Y1120469D01*
X538163Y1120528D01*
X538052Y1120602D01*
X537952Y1120690D01*
X537864Y1120790D01*
X537790Y1120901D01*
X537731Y1121020D01*
X537688Y1121146D01*
X537663Y1121277D01*
X537654Y1121410D01*
Y1137410D01*
X537663Y1137543D01*
X537688Y1137673D01*
X537731Y1137800D01*
X537790Y1137919D01*
X537864Y1138030D01*
X537952Y1138130D01*
X538052Y1138218D01*
X538163Y1138292D01*
X538282Y1138351D01*
X538408Y1138393D01*
X538539Y1138419D01*
X538672Y1138428D01*
X562672D01*
X562805Y1138419D01*
D02*
G37*
G36*
X654753Y1116919D02*
X654883Y1116893D01*
X655010Y1116851D01*
X655129Y1116792D01*
X655240Y1116718D01*
X655340Y1116630D01*
X655428Y1116530D01*
X655502Y1116419D01*
X655561Y1116300D01*
X655603Y1116173D01*
X655629Y1116043D01*
X655638Y1115910D01*
Y1109910D01*
X655629Y1109777D01*
X655603Y1109647D01*
X655561Y1109520D01*
X655502Y1109401D01*
X655428Y1109290D01*
X655340Y1109190D01*
X655240Y1109102D01*
X655129Y1109028D01*
X655010Y1108969D01*
X654883Y1108926D01*
X654753Y1108901D01*
X654620Y1108892D01*
X646138D01*
Y1106910D01*
X646129Y1106777D01*
X646104Y1106646D01*
X646061Y1106520D01*
X646002Y1106401D01*
X645928Y1106290D01*
X645840Y1106190D01*
X645740Y1106102D01*
X645629Y1106028D01*
X645510Y1105969D01*
X645384Y1105927D01*
X645253Y1105900D01*
X645120Y1105892D01*
X640120D01*
X639987Y1105900D01*
X639856Y1105927D01*
X639730Y1105969D01*
X639611Y1106028D01*
X639500Y1106102D01*
X639400Y1106190D01*
X639312Y1106290D01*
X639238Y1106401D01*
X639179Y1106520D01*
X639137Y1106646D01*
X639110Y1106777D01*
X639102Y1106910D01*
Y1108892D01*
X630620D01*
X630487Y1108901D01*
X630356Y1108926D01*
X630230Y1108969D01*
X630111Y1109028D01*
X630000Y1109102D01*
X629900Y1109190D01*
X629812Y1109290D01*
X629738Y1109401D01*
X629679Y1109520D01*
X629636Y1109647D01*
X629610Y1109777D01*
X629602Y1109910D01*
Y1115910D01*
X629610Y1116043D01*
X629636Y1116173D01*
X629679Y1116300D01*
X629738Y1116419D01*
X629812Y1116530D01*
X629900Y1116630D01*
X630000Y1116718D01*
X630111Y1116792D01*
X630230Y1116851D01*
X630356Y1116893D01*
X630487Y1116919D01*
X630620Y1116928D01*
X654620D01*
X654753Y1116919D01*
D02*
G37*
G36*
X608779D02*
X608909Y1116893D01*
X609036Y1116851D01*
X609155Y1116792D01*
X609266Y1116718D01*
X609366Y1116630D01*
X609454Y1116530D01*
X609528Y1116419D01*
X609587Y1116300D01*
X609630Y1116173D01*
X609655Y1116043D01*
X609664Y1115910D01*
Y1109910D01*
X609655Y1109777D01*
X609630Y1109647D01*
X609587Y1109520D01*
X609528Y1109401D01*
X609454Y1109290D01*
X609366Y1109190D01*
X609266Y1109102D01*
X609155Y1109028D01*
X609036Y1108969D01*
X608909Y1108926D01*
X608779Y1108901D01*
X608646Y1108892D01*
X600164D01*
Y1106910D01*
X600155Y1106777D01*
X600130Y1106646D01*
X600087Y1106520D01*
X600028Y1106401D01*
X599954Y1106290D01*
X599866Y1106190D01*
X599766Y1106102D01*
X599655Y1106028D01*
X599536Y1105969D01*
X599409Y1105927D01*
X599279Y1105900D01*
X599146Y1105892D01*
X594146D01*
X594013Y1105900D01*
X593882Y1105927D01*
X593756Y1105969D01*
X593637Y1106028D01*
X593526Y1106102D01*
X593426Y1106190D01*
X593338Y1106290D01*
X593264Y1106401D01*
X593205Y1106520D01*
X593162Y1106646D01*
X593136Y1106777D01*
X593128Y1106910D01*
Y1108892D01*
X584646D01*
X584513Y1108901D01*
X584382Y1108926D01*
X584256Y1108969D01*
X584137Y1109028D01*
X584026Y1109102D01*
X583926Y1109190D01*
X583838Y1109290D01*
X583764Y1109401D01*
X583705Y1109520D01*
X583662Y1109647D01*
X583637Y1109777D01*
X583628Y1109910D01*
Y1115910D01*
X583637Y1116043D01*
X583662Y1116173D01*
X583705Y1116300D01*
X583764Y1116419D01*
X583838Y1116530D01*
X583926Y1116630D01*
X584026Y1116718D01*
X584137Y1116792D01*
X584256Y1116851D01*
X584382Y1116893D01*
X584513Y1116919D01*
X584646Y1116928D01*
X608646D01*
X608779Y1116919D01*
D02*
G37*
G36*
X562805D02*
X562935Y1116893D01*
X563062Y1116851D01*
X563181Y1116792D01*
X563292Y1116718D01*
X563392Y1116630D01*
X563480Y1116530D01*
X563554Y1116419D01*
X563613Y1116300D01*
X563656Y1116173D01*
X563681Y1116043D01*
X563690Y1115910D01*
Y1109910D01*
X563681Y1109777D01*
X563656Y1109647D01*
X563613Y1109520D01*
X563554Y1109401D01*
X563480Y1109290D01*
X563392Y1109190D01*
X563292Y1109102D01*
X563181Y1109028D01*
X563062Y1108969D01*
X562935Y1108926D01*
X562805Y1108901D01*
X562672Y1108892D01*
X554190D01*
Y1106910D01*
X554181Y1106777D01*
X554156Y1106646D01*
X554113Y1106520D01*
X554054Y1106401D01*
X553980Y1106290D01*
X553892Y1106190D01*
X553792Y1106102D01*
X553681Y1106028D01*
X553562Y1105969D01*
X553436Y1105927D01*
X553305Y1105900D01*
X553172Y1105892D01*
X548172D01*
X548039Y1105900D01*
X547909Y1105927D01*
X547782Y1105969D01*
X547663Y1106028D01*
X547552Y1106102D01*
X547452Y1106190D01*
X547364Y1106290D01*
X547290Y1106401D01*
X547231Y1106520D01*
X547188Y1106646D01*
X547163Y1106777D01*
X547154Y1106910D01*
Y1108892D01*
X538672D01*
X538539Y1108901D01*
X538408Y1108926D01*
X538282Y1108969D01*
X538163Y1109028D01*
X538052Y1109102D01*
X537952Y1109190D01*
X537864Y1109290D01*
X537790Y1109401D01*
X537731Y1109520D01*
X537688Y1109647D01*
X537663Y1109777D01*
X537654Y1109910D01*
Y1115910D01*
X537663Y1116043D01*
X537688Y1116173D01*
X537731Y1116300D01*
X537790Y1116419D01*
X537864Y1116530D01*
X537952Y1116630D01*
X538052Y1116718D01*
X538163Y1116792D01*
X538282Y1116851D01*
X538408Y1116893D01*
X538539Y1116919D01*
X538672Y1116928D01*
X562672D01*
X562805Y1116919D01*
D02*
G37*
G36*
X654753Y1088889D02*
X654883Y1088864D01*
X655010Y1088821D01*
X655129Y1088762D01*
X655240Y1088688D01*
X655340Y1088600D01*
X655428Y1088500D01*
X655502Y1088389D01*
X655561Y1088270D01*
X655603Y1088143D01*
X655629Y1088013D01*
X655638Y1087880D01*
Y1071880D01*
X655629Y1071747D01*
X655603Y1071617D01*
X655561Y1071490D01*
X655502Y1071371D01*
X655428Y1071260D01*
X655340Y1071160D01*
X655240Y1071072D01*
X655129Y1070998D01*
X655010Y1070939D01*
X654883Y1070897D01*
X654753Y1070871D01*
X654620Y1070862D01*
X630620D01*
X630487Y1070871D01*
X630356Y1070897D01*
X630230Y1070939D01*
X630111Y1070998D01*
X630000Y1071072D01*
X629900Y1071160D01*
X629812Y1071260D01*
X629738Y1071371D01*
X629679Y1071490D01*
X629636Y1071617D01*
X629610Y1071747D01*
X629602Y1071880D01*
Y1087880D01*
X629610Y1088013D01*
X629636Y1088143D01*
X629679Y1088270D01*
X629738Y1088389D01*
X629812Y1088500D01*
X629900Y1088600D01*
X630000Y1088688D01*
X630111Y1088762D01*
X630230Y1088821D01*
X630356Y1088864D01*
X630487Y1088889D01*
X630620Y1088898D01*
X654620D01*
X654753Y1088889D01*
D02*
G37*
G36*
X562805D02*
X562935Y1088864D01*
X563062Y1088821D01*
X563181Y1088762D01*
X563292Y1088688D01*
X563392Y1088600D01*
X563480Y1088500D01*
X563554Y1088389D01*
X563613Y1088270D01*
X563656Y1088143D01*
X563681Y1088013D01*
X563690Y1087880D01*
Y1071880D01*
X563681Y1071747D01*
X563656Y1071617D01*
X563613Y1071490D01*
X563554Y1071371D01*
X563480Y1071260D01*
X563392Y1071160D01*
X563292Y1071072D01*
X563181Y1070998D01*
X563062Y1070939D01*
X562935Y1070897D01*
X562805Y1070871D01*
X562672Y1070862D01*
X538672D01*
X538539Y1070871D01*
X538408Y1070897D01*
X538282Y1070939D01*
X538163Y1070998D01*
X538052Y1071072D01*
X537952Y1071160D01*
X537864Y1071260D01*
X537790Y1071371D01*
X537731Y1071490D01*
X537688Y1071617D01*
X537663Y1071747D01*
X537654Y1071880D01*
Y1087880D01*
X537663Y1088013D01*
X537688Y1088143D01*
X537731Y1088270D01*
X537790Y1088389D01*
X537864Y1088500D01*
X537952Y1088600D01*
X538052Y1088688D01*
X538163Y1088762D01*
X538282Y1088821D01*
X538408Y1088864D01*
X538539Y1088889D01*
X538672Y1088898D01*
X562672D01*
X562805Y1088889D01*
D02*
G37*
G36*
X608779Y1088510D02*
X608909Y1088484D01*
X609036Y1088441D01*
X609155Y1088382D01*
X609266Y1088308D01*
X609366Y1088220D01*
X609454Y1088120D01*
X609528Y1088009D01*
X609587Y1087890D01*
X609630Y1087764D01*
X609655Y1087633D01*
X609664Y1087500D01*
Y1071500D01*
X609655Y1071367D01*
X609630Y1071236D01*
X609587Y1071110D01*
X609528Y1070991D01*
X609454Y1070880D01*
X609366Y1070780D01*
X609266Y1070692D01*
X609155Y1070618D01*
X609036Y1070559D01*
X608909Y1070517D01*
X608779Y1070490D01*
X608646Y1070482D01*
X584646D01*
X584513Y1070490D01*
X584382Y1070517D01*
X584256Y1070559D01*
X584137Y1070618D01*
X584026Y1070692D01*
X583926Y1070780D01*
X583838Y1070880D01*
X583764Y1070991D01*
X583705Y1071110D01*
X583662Y1071236D01*
X583637Y1071367D01*
X583628Y1071500D01*
Y1087500D01*
X583637Y1087633D01*
X583662Y1087764D01*
X583705Y1087890D01*
X583764Y1088009D01*
X583838Y1088120D01*
X583926Y1088220D01*
X584026Y1088308D01*
X584137Y1088382D01*
X584256Y1088441D01*
X584382Y1088484D01*
X584513Y1088510D01*
X584646Y1088518D01*
X608646D01*
X608779Y1088510D01*
D02*
G37*
G36*
X654753Y1067390D02*
X654883Y1067364D01*
X655010Y1067321D01*
X655129Y1067262D01*
X655240Y1067188D01*
X655340Y1067100D01*
X655428Y1067000D01*
X655502Y1066889D01*
X655561Y1066770D01*
X655603Y1066644D01*
X655629Y1066513D01*
X655638Y1066380D01*
Y1060380D01*
X655629Y1060247D01*
X655603Y1060117D01*
X655561Y1059990D01*
X655502Y1059871D01*
X655428Y1059760D01*
X655340Y1059660D01*
X655240Y1059572D01*
X655129Y1059498D01*
X655010Y1059439D01*
X654883Y1059397D01*
X654753Y1059370D01*
X654620Y1059362D01*
X646138D01*
Y1057380D01*
X646129Y1057247D01*
X646104Y1057116D01*
X646061Y1056990D01*
X646002Y1056871D01*
X645928Y1056760D01*
X645840Y1056660D01*
X645740Y1056572D01*
X645629Y1056498D01*
X645510Y1056439D01*
X645384Y1056396D01*
X645253Y1056370D01*
X645120Y1056362D01*
X640120D01*
X639987Y1056370D01*
X639856Y1056396D01*
X639730Y1056439D01*
X639611Y1056498D01*
X639500Y1056572D01*
X639400Y1056660D01*
X639312Y1056760D01*
X639238Y1056871D01*
X639179Y1056990D01*
X639137Y1057116D01*
X639110Y1057247D01*
X639102Y1057380D01*
Y1059362D01*
X630620D01*
X630487Y1059370D01*
X630356Y1059397D01*
X630230Y1059439D01*
X630111Y1059498D01*
X630000Y1059572D01*
X629900Y1059660D01*
X629812Y1059760D01*
X629738Y1059871D01*
X629679Y1059990D01*
X629636Y1060117D01*
X629610Y1060247D01*
X629602Y1060380D01*
Y1066380D01*
X629610Y1066513D01*
X629636Y1066644D01*
X629679Y1066770D01*
X629738Y1066889D01*
X629812Y1067000D01*
X629900Y1067100D01*
X630000Y1067188D01*
X630111Y1067262D01*
X630230Y1067321D01*
X630356Y1067364D01*
X630487Y1067390D01*
X630620Y1067398D01*
X654620D01*
X654753Y1067390D01*
D02*
G37*
G36*
X562805D02*
X562935Y1067364D01*
X563062Y1067321D01*
X563181Y1067262D01*
X563292Y1067188D01*
X563392Y1067100D01*
X563480Y1067000D01*
X563554Y1066889D01*
X563613Y1066770D01*
X563656Y1066644D01*
X563681Y1066513D01*
X563690Y1066380D01*
Y1060380D01*
X563681Y1060247D01*
X563656Y1060117D01*
X563613Y1059990D01*
X563554Y1059871D01*
X563480Y1059760D01*
X563392Y1059660D01*
X563292Y1059572D01*
X563181Y1059498D01*
X563062Y1059439D01*
X562935Y1059397D01*
X562805Y1059370D01*
X562672Y1059362D01*
X554190D01*
Y1057380D01*
X554181Y1057247D01*
X554156Y1057116D01*
X554113Y1056990D01*
X554054Y1056871D01*
X553980Y1056760D01*
X553892Y1056660D01*
X553792Y1056572D01*
X553681Y1056498D01*
X553562Y1056439D01*
X553436Y1056396D01*
X553305Y1056370D01*
X553172Y1056362D01*
X548172D01*
X548039Y1056370D01*
X547909Y1056396D01*
X547782Y1056439D01*
X547663Y1056498D01*
X547552Y1056572D01*
X547452Y1056660D01*
X547364Y1056760D01*
X547290Y1056871D01*
X547231Y1056990D01*
X547188Y1057116D01*
X547163Y1057247D01*
X547154Y1057380D01*
Y1059362D01*
X538672D01*
X538539Y1059370D01*
X538408Y1059397D01*
X538282Y1059439D01*
X538163Y1059498D01*
X538052Y1059572D01*
X537952Y1059660D01*
X537864Y1059760D01*
X537790Y1059871D01*
X537731Y1059990D01*
X537688Y1060117D01*
X537663Y1060247D01*
X537654Y1060380D01*
Y1066380D01*
X537663Y1066513D01*
X537688Y1066644D01*
X537731Y1066770D01*
X537790Y1066889D01*
X537864Y1067000D01*
X537952Y1067100D01*
X538052Y1067188D01*
X538163Y1067262D01*
X538282Y1067321D01*
X538408Y1067364D01*
X538539Y1067390D01*
X538672Y1067398D01*
X562672D01*
X562805Y1067390D01*
D02*
G37*
G36*
X608779Y1067010D02*
X608909Y1066983D01*
X609036Y1066941D01*
X609155Y1066882D01*
X609266Y1066808D01*
X609366Y1066720D01*
X609454Y1066620D01*
X609528Y1066509D01*
X609587Y1066390D01*
X609630Y1066264D01*
X609655Y1066133D01*
X609664Y1066000D01*
Y1060000D01*
X609655Y1059867D01*
X609630Y1059736D01*
X609587Y1059610D01*
X609528Y1059491D01*
X609454Y1059380D01*
X609366Y1059280D01*
X609266Y1059192D01*
X609155Y1059118D01*
X609036Y1059059D01*
X608909Y1059016D01*
X608779Y1058990D01*
X608646Y1058982D01*
X600164D01*
Y1057000D01*
X600155Y1056867D01*
X600130Y1056737D01*
X600087Y1056610D01*
X600028Y1056491D01*
X599954Y1056380D01*
X599866Y1056280D01*
X599766Y1056192D01*
X599655Y1056118D01*
X599536Y1056059D01*
X599409Y1056016D01*
X599279Y1055991D01*
X599146Y1055982D01*
X594146D01*
X594013Y1055991D01*
X593882Y1056016D01*
X593756Y1056059D01*
X593637Y1056118D01*
X593526Y1056192D01*
X593426Y1056280D01*
X593338Y1056380D01*
X593264Y1056491D01*
X593205Y1056610D01*
X593162Y1056737D01*
X593136Y1056867D01*
X593128Y1057000D01*
Y1058982D01*
X584646D01*
X584513Y1058990D01*
X584382Y1059016D01*
X584256Y1059059D01*
X584137Y1059118D01*
X584026Y1059192D01*
X583926Y1059280D01*
X583838Y1059380D01*
X583764Y1059491D01*
X583705Y1059610D01*
X583662Y1059736D01*
X583637Y1059867D01*
X583628Y1060000D01*
Y1066000D01*
X583637Y1066133D01*
X583662Y1066264D01*
X583705Y1066390D01*
X583764Y1066509D01*
X583838Y1066620D01*
X583926Y1066720D01*
X584026Y1066808D01*
X584137Y1066882D01*
X584256Y1066941D01*
X584382Y1066983D01*
X584513Y1067010D01*
X584646Y1067018D01*
X608646D01*
X608779Y1067010D01*
D02*
G37*
D16*
X310190Y1184250D02*
D03*
Y1076350D02*
D03*
D17*
X364890Y1115300D02*
D03*
Y1145300D02*
D03*
D18*
X412750Y1195810D02*
D03*
X550672D02*
D03*
X504698D02*
D03*
X458724D02*
D03*
X596646D02*
D03*
X642620D02*
D03*
X596646Y1161310D02*
D03*
X458724D02*
D03*
X504698D02*
D03*
X550672D02*
D03*
X642620D02*
D03*
X412750D02*
D03*
M02*
